<svg width="350" height="296" viewBox="0 0 350 296" fill="none" xmlns="http://www.w3.org/2000/svg">
<g clip-path="url(#clip0_122_2035)">
<path d="M110.8 180.153C110.12 179.636 109.331 180.426 109.875 181.079C110.338 181.678 110.882 182.577 111.752 182.468C112.024 182.441 112.16 182.277 112.188 182.032C112.296 181.161 111.399 180.616 110.8 180.153Z" fill="#003555"/>
<path d="M116.621 185.327C116.485 185.109 116.322 184.918 116.159 184.7C115.452 183.802 114.01 185.245 114.908 185.953C115.098 186.116 115.316 186.28 115.533 186.416C116.186 186.879 117.111 185.953 116.649 185.3L116.621 185.327Z" fill="#003555"/>
<path d="M143.226 268.95C142.737 268.46 142.41 268.024 142.138 267.371C142.057 267.153 141.757 267.125 141.676 267.371C141.404 268.296 141.866 269.059 142.492 269.685C142.954 270.175 143.716 269.413 143.226 268.95Z" fill="#003555"/>
<path d="M132.644 262.905C132.644 262.905 132.644 262.905 132.644 262.85C132.672 262.633 132.644 262.442 132.644 262.251C132.59 261.788 132.209 261.571 131.855 261.68C130.033 258.711 128.89 256.234 129.38 252.394C129.815 248.881 130.713 245.478 130.985 241.965C131.012 241.475 130.25 241.475 130.223 241.965C129.434 249.453 124.075 257.976 131.692 263.803C132.236 264.212 132.916 263.477 132.644 262.932V262.905Z" fill="#003555"/>
<path d="M127.313 261.326C127.068 261.326 126.796 261.326 126.551 261.38C125.381 260.999 124.212 260.699 123.069 260.236C122.253 259.91 121.41 259.637 120.621 259.229C119.859 258.82 119.261 258.167 118.553 257.677C118.281 257.513 117.928 257.786 118.009 258.085C118.526 259.637 119.941 260.427 121.41 260.972C122.171 261.244 123.096 261.189 123.885 261.135C124.674 261.108 125.463 261.271 126.225 261.516C126.034 261.652 126.034 261.897 126.225 262.034C126.524 262.279 126.932 262.224 127.313 262.224C127.884 262.224 127.884 261.298 127.313 261.326Z" fill="#003555"/>
<path d="M113.874 246.131C113.82 245.913 113.466 245.913 113.439 246.131C113.14 247.683 113.221 249.344 113.439 250.924C113.493 251.25 113.874 251.25 113.929 250.924C114.119 249.344 114.228 247.71 113.929 246.131H113.874Z" fill="#003555"/>
<path d="M124.293 200.276C124.048 199.95 123.586 200.222 123.749 200.576C130.985 216.179 128.02 231.618 113.493 241.693C113.194 241.911 113.466 242.401 113.792 242.21C127.476 233.851 134.794 213.946 124.293 200.276Z" fill="#003555"/>
<path d="M121.79 197.39C120.811 198.752 120.076 200.249 119.26 201.72C118.335 203.381 117.138 204.579 115.778 205.859C115.561 206.076 115.778 206.512 116.077 206.403C119.614 205.151 120.756 200.739 122.47 197.798C122.742 197.336 122.062 196.982 121.79 197.39Z" fill="#003555"/>
<path d="M112.024 193.768C111.072 198.234 111.507 202.944 110.637 207.465C110.609 207.682 110.909 207.764 110.963 207.546C111.915 203.162 112.541 198.288 112.405 193.822C112.405 193.605 112.051 193.55 112.024 193.768Z" fill="#003555"/>
<path d="M89.663 229.549C89.3637 228.786 89.0645 228.051 88.6837 227.343C89.0101 226.934 88.8469 226.145 88.194 226.172C88.1396 226.172 88.0852 226.172 88.058 226.172C88.0036 226.118 87.9764 226.063 87.922 226.036C87.8132 225.954 87.6499 225.954 87.5411 226.036C87.2419 226.227 87.0787 226.608 87.1875 226.962C87.2691 227.261 87.4867 227.397 87.7587 227.479C87.7859 227.588 87.8404 227.697 87.8676 227.806C83.2158 223.531 79.7609 218.221 76.1157 213.074C75.9796 212.884 75.6804 212.993 75.7348 213.238C75.8436 213.701 75.9524 214.055 76.1429 214.409C76.034 214.409 75.9524 214.409 75.8708 214.49C75.7892 214.545 75.7892 214.681 75.8708 214.708C76.0068 214.79 76.1973 214.79 76.3605 214.79C76.3877 214.844 76.4149 214.899 76.4693 214.953C76.5237 215.008 76.5781 214.981 76.6053 214.953C76.6325 215.008 76.6597 215.062 76.6869 215.117C77.1766 216.07 77.8023 216.968 78.3735 217.867C79.3801 219.446 80.4954 220.917 81.6108 222.414C83.7326 225.219 86.0721 227.86 88.7381 230.12C89.1189 230.447 89.9078 230.12 89.6902 229.549H89.663Z" fill="#003555"/>
<path d="M85.8815 215.634C85.147 214.953 84.4125 214.272 83.678 213.592C82.8075 212.829 81.7466 212.012 80.5496 212.394C80.2504 212.503 80.2776 213.02 80.6312 212.993C81.6105 212.857 82.9163 214.654 83.5148 215.28C84.3037 216.097 85.5006 217.976 86.752 217.894C86.9696 217.894 87.2417 217.703 87.2145 217.431C87.1328 216.587 86.48 216.179 85.8543 215.661L85.8815 215.634Z" fill="#003555"/>
<path d="M87.7585 210.188C87.7041 209.97 87.6225 209.807 87.4593 209.616C87.3505 209.48 87.1056 209.48 86.9968 209.616C86.8608 209.807 86.7792 209.97 86.6976 210.188C86.4528 211.059 88.0034 211.059 87.7313 210.188H87.7585Z" fill="#003555"/>
<path d="M90.2614 199.296C89.9349 198.915 89.7989 198.506 89.7445 198.043C89.7445 197.88 89.4997 197.934 89.4725 198.07C89.3909 198.724 89.4725 199.16 89.8805 199.677C90.0982 199.922 90.479 199.568 90.2614 199.296Z" fill="#003555"/>
<path d="M106.964 91.3019C106.855 90.839 106.094 90.9479 106.148 91.4108C107.155 105.952 107.264 119.131 104.543 133.563C102.095 146.66 98.0688 159.404 95.0492 172.393C94.8588 173.264 96.1645 173.618 96.3822 172.747C102.176 147.096 114.01 117.824 106.964 91.2747V91.3019Z" fill="#003555"/>
<path d="M104.299 95.305C104.163 94.8148 104.135 94.2975 104.108 93.7801C104.054 92.7181 102.503 92.7181 102.449 93.7801C102.394 94.8965 102.068 97.1294 103.673 97.2928C104.027 97.32 104.299 97.0205 104.407 96.7209C104.543 96.3669 104.407 95.6862 104.299 95.305Z" fill="#003555"/>
<path d="M103.809 100.506L103.999 101.404C104.054 101.622 104.38 101.622 104.435 101.404L104.625 100.506C104.788 99.825 103.646 99.825 103.782 100.506H103.809Z" fill="#003555"/>
<path d="M229.598 76.516C228.673 75.2907 226.47 76.0803 225.245 76.3526C224.81 76.4615 224.81 77.1151 225.245 77.1968C226.47 77.4691 228.673 78.286 229.598 77.0334C229.707 76.8972 229.707 76.6249 229.598 76.4888V76.516Z" fill="#003555"/>
<path d="M173.042 278.807C172.498 278.807 172.498 279.678 173.042 279.678C173.586 279.678 173.586 278.807 173.042 278.807Z" fill="#003555"/>
<path d="M171.164 275.594C170.729 275.594 170.729 276.275 171.164 276.275C171.6 276.275 171.6 275.594 171.164 275.594Z" fill="#003555"/>
<path d="M208.923 270.992C208.052 271.428 207.236 271.945 206.338 272.354C206.039 272.49 206.175 272.871 206.42 272.953C207.563 273.361 208.705 272.898 209.739 272.381C210.664 271.918 209.848 270.529 208.923 270.992Z" fill="#003555"/>
<path d="M195.213 274.288C192.383 274.642 189.826 273.335 187.269 272.327C186.997 272.218 186.725 272.654 186.97 272.844C189.309 274.805 192.084 276.085 195.213 275.704C196.11 275.595 196.11 274.179 195.213 274.288Z" fill="#003555"/>
<path d="M201.551 218.439C201.633 218.194 201.225 218.03 201.116 218.248C195.376 230.583 188.439 242.183 180.686 253.348C177.667 257.704 172.28 265.656 179.408 268.76C179.925 268.978 180.387 268.242 179.843 267.997C171.437 264.103 184.005 250.026 186.834 245.641C192.438 236.955 197.988 228.187 201.524 218.439H201.551Z" fill="#003555"/>
<path d="M208.052 184.782C207.998 184.619 207.726 184.728 207.78 184.891C208.433 186.879 208.569 188.894 208.569 190.991C208.569 191.345 209.113 191.345 209.113 190.991C209.113 188.785 208.896 186.825 208.025 184.782H208.052Z" fill="#003555"/>
<path d="M201.034 172.774C196.518 169.833 191.948 170.977 187.949 174.299C187.704 174.489 188.004 174.816 188.248 174.707C192.601 172.502 196.001 170.378 200.68 173.346C201.034 173.564 201.361 173.019 201.007 172.774H201.034Z" fill="#003555"/>
<path d="M182.862 176.232C180.332 177.512 177.394 179.363 174.456 179.391C170.947 179.418 172.307 173.618 172.389 171.63C172.389 171.276 171.872 171.222 171.79 171.548C171.11 173.863 170.267 178.819 173.341 179.908C176.252 180.943 180.686 177.757 182.998 176.477C183.161 176.395 182.998 176.15 182.862 176.232Z" fill="#003555"/>
<path d="M204.054 123.161C201.361 123.842 198.668 124.632 195.92 125.149C194.097 125.476 192.112 125.53 190.289 125.204C189.391 125.04 188.63 124.605 187.95 123.978C187.242 123.325 186.589 121.065 188.14 120.956C188.466 120.956 188.466 120.438 188.14 120.438C184.114 120.52 185.991 125.367 188.63 126.347C193.499 128.144 199.892 126.048 204.353 123.869C204.734 123.679 204.462 123.08 204.054 123.189V123.161Z" fill="#003555"/>
<path d="M277.938 115.836C277.775 115.591 277.34 115.754 277.448 116.027C282.209 127.599 267.438 122.671 261.698 119.948C251.877 115.291 242.818 113.467 231.964 113.412C230.522 113.412 230.522 115.645 231.964 115.645C241.023 115.727 249.483 116.98 258.08 119.92C262.623 121.473 266.948 123.324 271.654 124.304C278.727 125.748 281.801 122.208 277.911 115.836H277.938Z" fill="#003555"/>
<path d="M269.206 103.12C268.662 103.174 268.118 103.174 267.628 103.392C267.383 103.501 267.383 103.882 267.628 103.991C268.145 104.236 268.662 104.236 269.206 104.263C269.967 104.318 269.967 103.038 269.206 103.093V103.12Z" fill="#003555"/>
<path d="M171.627 281.286C165.071 281.177 157.672 274.587 152.095 271.619C150.681 270.856 144.125 267.371 143.907 271.238C143.907 271.592 144.342 271.728 144.56 271.51C146.627 269.549 156.747 277.065 158.543 278.154C162.242 280.387 167.112 283.927 171.627 283.818C173.26 283.791 173.26 281.34 171.627 281.286Z" fill="#003555"/>
<path d="M304.299 161.174C305.06 160.711 305.496 159.622 304.707 158.75C304.435 158.451 304.135 158.151 303.863 157.852C303.183 152.624 302.449 147.396 301.741 142.195C299.864 128.253 296.709 113.385 288.765 101.486C278.183 79.2117 257.182 59.6606 233.95 51.8728C226.741 45.9367 218.227 41.5527 209.168 38.748C209.739 38.3668 210.066 37.6316 209.603 36.8963C209.358 36.4879 209.086 36.1339 208.842 35.8071C211.235 30.0616 204.027 25.3781 199.756 23.1452C191.839 19.0335 182.427 18.1621 175.3 12.5528C168.58 7.27014 162.732 4.13869 156.502 12.3621C150.272 20.6128 150.3 32.4306 148.178 42.3696C148.123 42.3696 148.069 42.3423 148.015 42.3423C121.355 40.763 102.694 67.2578 93.3356 88.7422C81.366 116.272 76.1158 147.477 70.1038 176.695C66.7034 193.224 65.4792 209.943 69.4509 226.471C70.9743 232.816 75.082 237.935 80.3323 240.331C80.4683 241.312 80.7404 242.238 81.0396 243.191C80.1419 244.225 81.9645 247.193 82.835 248.283C84.0048 249.726 85.3922 250.08 86.8339 249.835C88.4389 254.219 91.8666 257.459 95.8927 259.937C99.7556 262.306 107.264 264.811 111.344 261.789C112.242 261.108 111.888 259.91 110.8 259.774C110.202 259.692 109.576 259.692 108.978 259.719C108.678 259.61 108.352 259.474 108.053 259.365C108.025 259.12 107.917 258.902 107.781 258.739C107.944 258.712 108.08 258.63 108.189 258.548C108.434 258.603 108.678 258.684 108.923 258.684C109.603 258.684 109.739 257.84 109.25 257.486C109.141 257.405 109.005 257.35 108.869 257.296C108.869 257.187 108.869 257.078 108.869 256.942C114.228 263.232 119.505 269.767 125.164 275.785C127.177 277.936 131.012 281.667 134.522 281.993C134.522 282.048 134.494 282.075 134.467 282.129C134.277 282.075 134.059 282.048 133.923 282.021C133.57 282.021 133.216 282.238 133.053 282.511C132.155 284.09 133.461 285.969 134.93 287.058C141.567 296.071 181.556 294.737 187.215 295.173C201.687 296.262 216.404 295.173 230.904 294.9C238.221 294.764 245.485 294.465 252.802 294.601C258.107 294.71 263.194 295.036 268.444 294.056C276.442 292.559 280.713 286.568 284.086 279.706C286.78 274.26 289.962 269.277 293.254 264.158C295.049 261.38 296.219 258.249 297.389 255.145C298.395 253.075 299.32 250.951 300.164 248.773C300.517 248.146 300.871 247.52 301.279 246.894C301.469 246.622 301.306 246.349 301.089 246.213C303.809 238.344 305.414 230.038 306.366 222.087C308.787 201.883 306.937 181.379 304.326 161.147L304.299 161.174ZM199.864 27.9649C199.864 27.9649 199.837 28.1011 199.864 28.1828C199.892 28.5367 201.446 27.6109 201.5 27.9649C200.031 26.4128 196.736 26.3311 194.777 25.1602C196.736 26.0316 198.395 26.9302 199.864 27.9649ZM179.897 23.3358C184.494 25.2691 189.201 26.8213 193.308 29.1903C195.92 30.9602 198.178 33.2203 200.028 36.4607C187.378 34.1189 174.13 34.8269 162.079 38.7752C161.834 38.3668 161.616 37.9311 161.399 37.4954C161.698 37.2503 161.943 36.9236 161.997 36.5696C162.868 31.4231 160.555 26.7123 164.554 22.1377C168.363 17.8081 175.898 21.6203 179.924 23.3086L179.897 23.3358ZM173.586 14.949C173.45 14.8945 173.314 14.8401 173.151 14.7856C171.954 14.4044 170.088 10.1619 169 10.053C168.211 9.04552 166.177 12.3621 166.268 12.4983C166.159 12.3349 168.636 9.71592 168.5 9.55254C168.31 9.36193 167.218 10.5871 167 10.4509C166.538 10.1242 168.044 8.74218 167.5 8.55157C167.228 8.44265 163.058 10.6739 162.759 10.7011C166.459 8.71333 170.321 12.1443 173.559 14.9762L173.586 14.949ZM161.317 11.7903C161.317 11.7903 161.317 11.872 161.344 11.8992C161.644 12.4166 155.51 13.7781 156 14.0504C154.368 14.7311 159.494 14.9762 158.352 16.2288C157.917 16.6917 159.381 19.5454 159 20.0628C160.007 17.8027 159.467 13.3969 161.317 11.7903ZM154.815 39.0747C155.74 39.5377 156.965 39.2381 157.264 38.2034C157.345 38.4485 157.4 38.7208 157.481 38.9658C156.556 39.2654 155.659 39.5376 154.734 39.7827C154.761 39.5376 154.788 39.3198 154.843 39.0747H154.815ZM154.054 28.0194C154.081 28.7818 152.337 33.0841 152.5 33.8194C152.5 33.901 154.38 30.4428 154.435 30.5245C154.244 31.532 153.582 26.5353 153.5 27.5701C153.174 27.5156 153.319 33.656 153.02 33.8194C153.374 31.886 153.7 29.9527 154.054 28.0194ZM188.031 38.5846C192.928 38.6391 197.607 39.3198 202.122 40.409C202.394 40.6541 202.748 40.7902 203.21 40.8175H203.673C210.963 42.778 217.846 45.8822 224.565 49.5583C214.391 48.0062 203.891 49.1771 193.716 50.5658C181.502 52.2268 166.975 55.0587 157.645 63.7996C157.4 64.0174 157.318 64.2897 157.345 64.5348C141.839 73.0577 136.235 93.4802 133.95 109.927C132.046 123.597 131.992 137.429 131.556 151.208C131.312 158.996 130.795 166.729 131.094 174.517C131.203 177.022 131.502 179.472 131.828 181.95C127.993 182.713 122.688 182.25 118.091 180.589C115.425 179.364 112.922 177.73 110.555 175.579C111.099 175.688 111.698 175.47 111.916 174.762C114.908 165.013 113.303 153.985 113.058 143.937C112.759 131.874 113.113 119.43 113.874 107.395C114.636 95.1412 117.846 82.7244 124.456 72.3225C130.55 62.7648 138.412 55.331 147.117 48.4419C160.474 42.4785 173.015 38.3668 187.949 38.5574L188.031 38.5846ZM76.9047 232.489C73.069 227.397 72.5249 219.364 71.736 213.265C69.5597 196.627 73.6675 179.445 77.5031 163.352C83.2975 139.172 87.8405 114.229 97.6337 91.2474C102.177 80.6004 108.134 70.8249 116.186 62.4653C125.136 53.2071 135.936 49.6127 147.634 45.3921C147.634 45.3921 147.661 45.4193 147.688 45.4466C146.845 45.9912 145.974 46.5358 145.158 47.1076C144.832 47.3254 144.696 47.6522 144.696 47.9517C136.97 52.9076 130.142 60.2052 124.62 67.0671C117.302 76.1347 113.439 86.6455 111.888 98.1638C110.229 110.39 111.127 122.861 111.154 135.142C111.154 140.316 111.426 145.517 111.535 150.663C111.099 150.336 110.365 150.255 109.957 150.827C102.422 160.983 101.061 173.972 100.218 186.253C99.2659 199.786 101.769 213.809 99.5108 227.152C97.6609 238.126 83.5423 241.23 76.9591 232.462L76.9047 232.489ZM86.6979 246.676C85.637 247.003 84.7393 246.24 84.0592 245.396C84.3584 244.389 83.8416 243.191 83.5151 242.238C83.4063 241.938 83.2975 241.666 83.1615 241.366C83.4607 241.448 83.7599 241.475 84.0592 241.53C84.0592 241.584 84.0592 241.638 84.0592 241.666C84.032 242.129 84.1136 242.564 84.2224 243C84.44 243.98 84.8481 244.852 85.501 245.614C86.045 246.24 86.9428 245.941 87.3508 245.369C87.4596 245.206 87.5412 245.042 87.5956 244.879C88.0853 245.151 88.575 245.342 89.1734 245.342C89.2278 245.342 89.2823 245.342 89.3095 245.342C88.4934 245.914 87.65 246.404 86.7251 246.703L86.6979 246.676ZM91.5673 243.572C91.6218 243.327 91.5673 243.054 91.4041 242.864C90.588 242.074 89.5543 242.401 88.847 243.082C88.3845 242.809 87.8677 242.428 87.5684 242.129C87.4324 241.992 87.2692 241.911 87.0788 241.856C88.1941 241.856 89.3095 241.747 90.4248 241.502C90.4248 241.53 90.4248 241.584 90.452 241.611C90.8873 242.455 91.4585 242.7 91.8938 243.299C91.785 243.381 91.6762 243.49 91.5673 243.572ZM270.24 289.863C261.072 293.539 248.64 290.816 239.037 291.197C226.306 291.687 213.684 293.484 200.925 293.757C192.547 293.92 133.053 293.049 137.568 281.966C137.677 281.667 137.677 281.421 137.568 281.176C137.84 280.986 138.112 280.741 138.385 280.468C138.956 279.869 138.575 278.916 137.949 278.698C138.711 277.174 140.234 275.975 141.459 274.859C142.547 273.852 144.397 272.136 143.716 270.529C143.608 270.312 143.254 270.203 143.064 270.366C142.275 270.965 142.084 271.945 141.54 272.762C140.86 273.77 139.799 274.559 138.929 275.376C137.759 276.493 137.079 277.582 136.888 278.944C131.611 282.048 123.559 270.775 120.675 267.452C115.588 261.571 110.365 257.677 107.318 250.243C103.564 241.039 105.713 229.548 106.257 219.963C106.992 207.41 106.72 195.048 106.692 182.522C106.692 182.277 106.312 182.277 106.312 182.522C106.148 198.425 103.999 214.517 102.938 230.42C102.34 239.324 101.85 248.31 107.617 255.499C107.481 255.471 107.345 255.444 107.209 255.444C103.918 255.362 100.844 254.055 98.0962 252.34C95.6207 250.815 94.2877 248.773 92.8731 246.54C93.4988 246.077 94.0701 245.614 94.5869 245.26C95.1854 244.852 95.5391 244.171 95.3214 243.436C95.0222 242.374 94.4237 241.203 93.5804 240.495C93.7164 240.44 93.8524 240.413 93.9613 240.359C94.1517 240.522 94.4237 240.631 94.6957 240.631C95.1582 240.631 95.3214 240.114 95.1038 239.814H95.131C100.164 237.118 100.381 230.42 101.007 225.518C101.986 217.594 101.089 209.425 101.061 201.474C100.98 185.572 101.741 165.34 111.48 152.134C111.589 157.552 111.48 162.971 110.691 168.335C108.678 169.288 107.073 170.977 106.094 173.019C104.843 175.633 105.196 178.057 105.876 180.725C105.931 180.916 106.176 180.861 106.176 180.698C106.339 178.982 106.665 177.321 107.155 175.769C107.209 175.824 107.291 175.878 107.345 175.905C111.235 181.814 118.308 184.891 125.354 185.164C128.074 185.49 130.686 185.436 132.781 184.946C133.053 185.518 133.297 186.089 133.461 186.579C132.073 193.904 133.025 201.529 133.325 208.935C133.678 217.703 133.461 226.308 132.318 234.994C130.931 245.723 130.006 257.949 139.364 265.301C139.527 265.437 139.745 265.22 139.609 265.056C129.244 254.545 135.093 239.841 136.344 227.016C137.024 220.154 136.644 213.183 136.344 206.348C136.072 200.004 136.181 193.523 135.202 187.233C135.474 186.743 135.555 186.144 135.474 185.599C135.365 184.946 135.311 184.319 135.202 183.666C135.365 183.23 135.283 182.713 135.011 182.304C134.222 176.287 133.814 170.378 133.896 164.224C134.086 150.527 134.522 136.749 135.365 123.079C136.671 101.867 141.05 79.1028 158.352 65.624C158.515 65.624 158.678 65.5967 158.842 65.515C178.646 53.9423 206.42 48.4963 228.999 53.6972C230.55 54.0512 232.073 54.4869 233.624 54.977C233.787 55.086 233.95 55.1677 234.114 55.2766C234.386 55.44 234.658 55.4672 234.902 55.4127C254.054 61.7845 271.926 77.1422 282.998 94.5694C273.695 85.0389 260.419 79.7019 247.253 77.9591C243.064 77.4145 238.929 77.1695 234.712 77.469C234.25 77.4962 234.25 78.2042 234.712 78.2042C249.647 77.8774 266.703 83.623 277.966 93.5074C290.588 104.59 295.213 123.134 298.042 138.982C298.967 144.237 299.864 149.519 300.653 154.829C280.305 135.959 250.544 134.407 224.021 138.028C208.923 140.098 192.247 142.93 178.591 149.928C172.933 152.842 167.982 156.953 163.33 161.256C160.664 163.734 157.672 166.293 155.55 169.343C155.604 168.417 155.632 167.518 155.686 166.593C156.774 145.544 160.066 125.503 174.429 109.165C186.888 94.9779 203.646 81.6352 222.579 78.2314C223.042 78.1497 222.933 77.3601 222.47 77.4145C202.748 79.6746 185.746 93.3168 172.851 107.585C158.542 123.351 154.951 143.747 153.727 164.333C153.537 167.627 153.346 170.922 153.183 174.217C153.102 174.489 153.02 174.734 152.966 175.007C152.938 175.143 153.02 175.252 153.129 175.279C151.986 197.335 151.415 219.664 152.748 241.611C153.646 256.179 153.945 274.832 169.941 281.067C170.811 281.421 171.274 280.087 170.566 279.624C154.516 269.059 155.713 248.201 154.897 230.992C153.972 211.086 154.516 191.29 155.496 171.44C158.488 167.546 163.249 164.768 166.812 161.637C171.382 157.607 176.388 154.203 181.828 151.426C194.533 144.945 210.583 143.257 224.565 141.677C226.415 141.459 228.292 141.296 230.196 141.133C224.864 165.095 225.953 189.874 223.341 214.191C221.926 227.424 220.838 240.604 220.321 253.892C220.022 261.87 222.035 274.451 215.615 280.496C214.69 281.367 215.071 282.511 215.86 283.082C202.394 284.117 188.956 285.016 175.98 280.632C175.272 280.387 174.892 281.449 175.49 281.803C182.318 285.969 190.098 287.358 197.987 287.194C209.168 286.949 220.349 285.152 231.584 284.88C246.654 284.498 261.453 285.288 275.3 278.453C279.407 276.411 282.998 273.852 286.127 270.856C281.72 278.154 278.7 286.595 270.158 289.999L270.24 289.863ZM243.308 281.857C240.289 281.884 237.269 281.884 234.277 281.912C228.918 281.966 223.531 282.347 218.145 282.756C223.45 277.99 223.45 268.95 223.722 262.36C224.212 249.671 224.212 237.009 225.055 224.347C225.953 210.869 226.796 197.499 227.258 183.993C227.748 169.534 228.346 155.074 231.23 140.888C240.806 140.125 250.762 140.043 260.392 141.323C260.256 141.378 260.175 141.514 260.093 141.677C258.08 142.903 257.889 152.379 257.808 153.359C256.692 166.62 255.468 179.718 253.455 192.897C251.252 207.193 250.653 221.352 250.164 235.784C249.701 249.862 249.919 267.207 242.846 279.842C242.383 280.659 242.71 281.421 243.281 281.857H243.308ZM304.462 214.408C303.102 236.792 296.654 261.979 276.442 274.587C267.003 280.468 256.148 281.585 245.294 281.83C245.403 281.721 245.512 281.612 245.593 281.449C250.68 272.218 251.633 260.536 252.503 250.161C253.7 235.975 253.346 221.706 254.38 207.519C255.496 192.379 258.352 177.376 259.386 162.181C259.522 160.166 259.222 146.443 260.311 143.012C260.338 143.039 260.365 143.066 260.419 143.12C260.583 143.284 260.827 143.284 260.991 143.12C261.072 143.066 261.317 142.658 261.208 142.794C261.426 142.494 261.426 142.222 261.399 141.895C261.399 141.677 261.29 141.541 261.181 141.432C276.197 143.529 290.479 148.866 301.497 159.867C304.054 177.948 305.523 196.328 304.462 214.381V214.408Z" fill="#003555"/>
<path d="M38.928 137.13C71.1642 111.724 81.2838 69.6266 69.94 31.2596C70.212 31.3957 70.4569 31.5319 70.7017 31.668C73.0412 32.7845 75.3263 33.9826 77.7202 34.9901C80.3861 36.1065 81.9367 32.4032 79.2436 31.3413C76.8497 30.361 74.5102 29.2718 72.0891 28.2915C71.0009 27.8558 69.8856 27.5835 68.743 27.3657C68.5526 26.8211 68.199 26.4399 67.8181 26.1403C67.7637 24.9422 66.1587 24.2887 65.3154 25.4868C65.3154 25.5141 65.261 25.5685 65.2338 25.5957C64.0096 25.9225 63.0575 26.9572 63.3296 28.4549C62.3502 29.9253 61.3709 31.3957 60.2284 32.73C58.7322 34.4999 56.039 35.7798 55.7126 38.176C55.6582 38.53 56.0118 38.9112 56.3383 38.9929C58.9226 39.6192 61.0717 36.7328 62.5406 34.9901C63.2207 34.1732 63.8464 33.3291 64.4721 32.4305C76.0064 71.3693 64.9074 106.224 38.4656 136.612C38.1935 136.939 38.6016 137.32 38.928 137.075V137.13Z" fill="#F2F8FC"/>
<path d="M349.511 180.998C326.85 163.57 318.444 139.445 315.398 111.888C314.119 100.261 313.684 88.5247 312.732 76.8703C312.677 76.3529 312.65 75.8083 312.623 75.2637C314.309 77.7144 318.009 75.2637 317.139 72.5679C316.078 69.1914 314.527 65.951 313.466 62.5473C312.324 58.9802 311.698 55.2769 310.555 51.7098C310.011 50.0215 307.372 50.2938 307.1 51.9821C306.312 50.9201 304.87 50.3755 303.374 51.3285C297.226 55.2769 290.316 59.6609 285.691 65.4337C283.569 68.1022 287.187 72.2956 289.881 69.8994C293.716 66.4956 297.634 63.2008 301.578 59.9604C301.66 67.8027 304.543 77.2515 305.115 83.9773C306.176 96.8298 306.992 109.601 309.25 122.29C313.738 147.559 326.85 168.281 347.933 182.877C349.239 183.775 350.789 181.951 349.511 180.943V180.998Z" fill="#F2F8FC"/>
<path d="M0.952453 33.2475C-0.326111 33.2475 -0.326111 35.2353 0.952453 35.2353C2.23102 35.2353 2.23102 33.2475 0.952453 33.2475Z" fill="#F2F8FC"/>
<path d="M12.5956 39.2654C12.3508 38.6936 11.3443 38.6936 11.0994 39.2654C10.8274 39.8917 10.637 40.4908 10.5282 41.1443C10.1473 43.3499 13.5478 43.3499 13.1669 41.1443C13.0581 40.4635 12.8405 39.8917 12.5956 39.2654Z" fill="#F2F8FC"/>
<path d="M225.843 46.9447C224.51 46.972 223.585 47.4893 222.796 48.5513C222.66 48.7691 222.552 49.0142 222.47 49.2321C222.905 48.0612 222.171 49.6133 222.144 49.7494C221.953 50.2668 221.872 50.8386 221.79 51.3832C221.219 55.0593 226.795 55.0865 226.387 52.0095C226.333 51.5466 226.279 51.0837 226.251 50.6208C226.251 50.5663 226.251 50.5119 226.251 50.4302C228.128 49.8311 228.101 46.8358 225.87 46.9175L225.843 46.9447Z" fill="#F2F8FC"/>
<path d="M277.476 24.3164C277.013 23.9352 276.605 23.6084 276.007 23.4723C275.109 23.3089 275.381 23.2272 276.061 23.6084C275.517 23.3089 275.027 23.2817 274.429 23.3906C272.715 23.7174 272.525 25.569 272.443 26.9849C272.28 30.0347 277.313 30.0347 277.149 26.9849C277.149 26.7399 277.149 26.4948 277.149 26.2497C277.258 26.1681 277.367 26.1136 277.476 26.0319C277.938 25.6507 277.965 24.6976 277.476 24.3164Z" fill="#F2F8FC"/>
<path d="M205.876 110.935C204.108 110.935 204.108 113.685 205.876 113.685C207.644 113.685 207.644 110.935 205.876 110.935Z" fill="#F2F8FC"/>
<path d="M135.147 183.666C133.542 183.666 133.542 186.144 135.147 186.144C136.752 186.144 136.752 183.666 135.147 183.666Z" fill="#F2F8FC"/>
<path d="M130.767 237.092C130.821 236.057 130.631 235.049 130.087 234.232C129.298 232.19 127.067 231.755 125.897 233.661C124.292 235.077 123.966 238.099 124.7 239.978C125.272 241.394 126.605 242.837 128.318 242.347C128.454 242.347 128.999 242.265 129.162 242.238C129.787 242.129 130.386 241.775 130.93 241.476C132.725 240.495 132.209 237.881 130.767 237.119V237.092Z" fill="#F2F8FC"/>
<path d="M331.284 253.892C326.469 253.892 326.469 261.353 331.284 261.353C336.099 261.353 336.099 253.892 331.284 253.892Z" fill="#F2F8FC"/>
<path d="M248.504 3.13148C248.504 3.13148 248.449 3.07702 248.422 3.07702C248.531 2.20566 248.123 1.3343 247.116 1.03477C247.089 1.00754 247.062 0.980311 247.035 0.953081C245.729 -0.353958 243.825 -0.190578 242.519 0.953081C238.357 4.52021 245.484 10.4019 249.184 8.41409C249.891 8.03287 250.489 7.10705 250.408 6.29015C250.245 4.76528 249.646 4.08453 248.531 3.15871L248.504 3.13148Z" fill="#F2F8FC"/>
<path d="M24.3474 236.492C23.0416 236.383 21.9263 236.465 21.1102 237.609C20.3485 238.671 20.7293 239.95 21.4094 240.903C22.0079 241.748 23.0688 241.748 23.6673 240.903C23.6673 240.903 23.9121 240.577 24.0482 240.413C24.157 240.413 24.2658 240.413 24.3746 240.413C26.8773 240.223 26.8773 236.71 24.3746 236.519L24.3474 236.492Z" fill="#F2F8FC"/>
</g>
<defs>
<clipPath id="clip0_122_2035">
<rect width="350" height="295.663" fill="white"/>
</clipPath>
</defs>
</svg>
