<svg width="350" height="355" viewBox="0 0 350 355" fill="none" xmlns="http://www.w3.org/2000/svg">
<g clip-path="url(#clip0_122_2080)">
<path d="M340.98 252.783C339.632 249.755 338.752 245.654 336.58 243.176C336.36 242.956 336.057 242.901 335.782 242.984C319.887 217.548 315.817 185.424 311.719 156.3C308.997 136.921 305.422 117.679 303.442 98.1896C303.029 94.0605 303.689 86.986 300.609 83.5451C298.134 80.7924 294.009 80.6822 290.489 80.2969C290.351 76.4706 290.489 72.6443 291.066 68.873C291.204 67.9095 290.819 67.1663 289.911 66.8084C286.556 65.5422 283.146 64.4686 279.599 64.0832C279.351 62.5417 279.049 61.0277 278.581 59.6238C279.791 58.9356 280.259 57.1739 278.691 56.2655C269.946 51.228 257.186 56.1554 248.551 59.1008C235.543 63.5327 222.452 68.1298 209.912 73.7453C196.547 79.7188 183.182 87.2062 172.181 96.9509C167.176 101.41 159.366 108.733 157.551 116.385C156.754 116.605 156.121 117.211 156.231 118.147C156.341 119.083 156.534 119.964 156.699 120.872C155.984 120.239 155.324 119.606 154.718 119.055C151.666 116.165 147.981 113.743 144.461 111.43C136.953 106.475 128.483 103.392 119.573 102.209C106.152 100.447 92.1822 101.52 78.8444 103.227C63.9391 105.154 48.9237 108.54 35.3109 115.091C29.6733 117.817 24.3382 121.34 20.0481 125.91C17.0231 129.13 12.788 134.718 14.108 139.343C14.3555 140.169 15.483 140.609 16.143 140.004C17.4906 141.545 18.7281 143.142 19.9106 144.793C19.8006 144.876 19.7181 144.959 19.6356 145.069C16.1705 150.024 12.3755 155.336 10.5604 161.145C8.82788 166.65 13.8605 173.697 16.528 178.074C21.0106 185.396 25.8232 192.251 29.3433 200.151C34.2934 211.245 37.6485 223.329 40.3711 235.111C43.0661 246.755 44.8261 258.619 46.7237 270.401C48.0712 278.632 49.8038 286.807 50.8488 295.093C51.6738 301.672 52.4163 308.251 53.5438 314.775C54.0113 317.61 54.3964 323.419 57.2014 325.456C57.0089 326.144 57.4764 326.997 58.3289 326.694C62.564 325.208 66.7441 323.529 70.8692 321.739C70.7592 325.208 71.4467 329.034 71.4467 332.007C71.4467 333.191 72.6567 334.237 73.8393 333.824C83.7395 330.466 93.0072 325.593 102.687 321.739C113.963 317.252 126.393 314.72 138.356 312.793C150.703 310.784 163.931 310.481 176.389 311.389C187.527 312.215 198.224 316.895 209.417 316.674C209.5 316.785 209.527 316.895 209.61 317.005C209.967 317.5 210.792 317.363 210.82 316.674C210.82 316.619 210.82 316.564 210.82 316.509C211.617 316.234 212.25 315.518 212.222 314.582C212.167 313.178 211.975 311.747 211.727 310.343C213.817 302.553 219.29 296.717 225.67 290.909C233.453 283.807 242.115 277.09 250.888 271.282C262.218 263.794 275.446 259.885 288.866 258.647C291.506 258.454 294.174 258.316 296.842 258.206C303.552 258.096 310.317 258.647 316.999 258.977C319.062 259.087 321.125 259.197 323.187 259.335C311.582 261.179 300.389 265.281 289.691 270.373C279.599 275.191 269.753 279.843 259.331 283.999C248.798 288.211 238.155 292.505 228.448 298.424C221.242 302.828 213.185 309.049 211.755 317.913C211.645 318.574 212.525 318.822 212.745 318.188C215.907 309.6 224.432 304.204 232.078 299.965C241.785 294.57 252.208 290.634 262.576 286.725C287.519 277.31 310.372 261.84 338.01 262.418C338.752 262.418 339.275 262.115 339.605 261.647C340.375 261.812 340.98 261.565 341.42 261.124C341.557 261.592 341.695 262.06 341.805 262.528C341.915 262.996 342.52 262.831 342.575 262.418C343.043 258.812 342.383 256.032 340.897 252.673L340.98 252.783ZM298.849 87.7017C299.729 91.0325 299.509 94.8313 299.757 98.2172C300.087 102.869 300.582 107.521 301.132 112.146C303.057 128.773 305.917 145.317 308.337 161.888C304.817 147.574 302.369 133.067 298.409 118.808C295.164 107.191 291.396 94.7763 290.599 82.444C293.981 83.3799 297.942 84.2608 298.877 87.7017H298.849ZM287.739 69.5612C286.446 85.6096 289.746 100.887 293.706 116.413C294.091 117.927 294.504 119.413 294.889 120.927C292.001 113.275 289.086 105.65 286.721 97.8043C284.494 90.3994 282.624 82.8844 281.029 75.3144C280.479 72.6443 280.259 69.6438 279.929 66.6983C282.569 67.4416 285.236 68.5427 287.739 69.5612ZM166.269 108.21C169.734 104.411 173.584 100.887 177.544 97.6391C188.242 88.8854 201.029 82.2238 213.597 76.6082C224.46 71.7634 235.845 68.0747 247.038 64.0282C255.178 61.0828 266.783 56.1829 275.556 59.3485C274.401 63.7804 275.859 69.2309 276.574 73.5251C277.811 81.0676 279.764 88.5 281.854 95.8223C286.254 111.32 292.854 125.937 297.749 141.242C305.394 165.136 309.657 190.048 316.807 214.025C317.797 219.888 318.815 225.751 320.327 231.505C321.345 235.414 322.555 240.093 325.772 242.846C326.405 243.369 327.092 243.397 327.642 243.176C327.89 243.727 328.137 244.305 328.412 244.855C319.337 241.249 308.309 241.139 298.794 241.36C285.291 241.717 271.816 244.085 258.891 247.883C243.765 252.315 226.165 259.885 215.027 272.245C211.177 272.493 208.125 276.567 206.2 281.632C206.172 269.437 205.045 257.105 203.917 245.103C202.432 229.385 200.617 213.061 195.914 197.949C187.114 169.761 166.131 146.831 160.026 117.652C159.971 117.349 159.834 117.101 159.641 116.908C161.099 113.577 164.124 110.577 166.296 108.182L166.269 108.21ZM204.825 298.424C204.825 298.424 204.77 298.644 204.77 298.754C203.945 297.625 203.23 296.359 202.487 295.231C202.295 294.928 202.047 294.652 201.827 294.377C201.387 293.579 200.809 292.863 200.094 292.23C200.947 292.45 201.772 292.643 202.652 292.726C203.037 293.083 203.56 293.249 204.055 293.249C204.055 295.203 204.33 296.965 204.825 298.396V298.424ZM17.1606 138.71C18.0406 137.223 18.5356 135.627 19.3606 133.975C20.5981 131.608 22.3032 129.543 24.2007 127.644C28.4358 123.35 33.9084 120.349 39.326 117.817C52.3613 111.733 67.0191 108.87 81.1819 107.136C93.3372 105.622 105.822 105.016 118.033 106.228C126.805 107.109 134.918 110.357 142.371 115.009C145.836 117.184 148.998 119.799 152.326 122.138C153.811 123.185 155.709 124.533 157.661 125.469C160.246 135.434 165.114 144.876 169.899 153.878C177.269 167.724 185.437 181.185 190.854 195.939C196.327 210.859 197.977 227.541 199.599 243.231C201.139 258.261 201.167 273.291 201.91 288.349C198.004 286.532 193.109 285.981 189.122 285.321C182.412 284.192 175.564 283.944 168.744 284.027C154.333 284.192 140.006 286.587 125.788 288.789C115.283 290.413 104.667 290.909 94.1622 292.505C86.6271 293.662 77.7994 295.588 71.9967 300.984C71.7492 300.598 71.3367 300.323 70.8692 300.241C70.8692 300.158 70.8417 300.103 70.8142 300.02C70.5392 298.919 70.2642 297.846 70.0167 296.745C69.4667 294.212 69.0817 291.652 68.6967 289.092C67.7616 283.063 66.7166 277.2 65.2866 271.227C60.8865 253.141 54.3964 235.579 49.4462 217.631C45.2387 202.381 41.7461 186.91 36.5485 171.963C32.3684 159.989 26.6483 147.464 17.1881 138.682L17.1606 138.71ZM60.529 322.951C60.3365 322.675 60.034 322.455 59.6765 322.4C57.9714 318.794 57.5864 314.252 57.0089 310.453C56.0464 304.26 55.4139 297.983 54.5614 291.762C51.9763 272.548 48.5937 253.004 44.3036 234.092C40.151 215.759 34.0184 197.646 23.6507 181.873C20.5156 177.111 12.9805 168.357 14.3005 162.218C15.483 156.768 19.1131 151.978 21.2306 146.831C28.2708 157.401 32.5884 169.706 36.1635 181.845C41.4161 199.683 45.0187 217.934 50.3538 235.771C55.3864 252.673 61.6565 269.382 64.1866 286.89C64.9016 291.872 65.2041 297.57 67.3216 302.195C67.8716 303.379 68.7792 303.984 69.6867 304.067C69.7967 304.728 70.5667 305.168 71.2542 304.59C77.9919 298.864 88.1396 297.543 96.5823 296.304C106.015 294.9 115.613 294.597 125.045 293.138C136.128 291.432 147.211 289.698 158.376 288.817C153.976 289.477 149.603 290.276 145.286 291.157C132.306 293.744 119.628 297.543 107.142 301.892C91.5496 307.343 74.4168 313.564 60.529 322.978V322.951ZM176.444 307.343C164.426 306.214 151.776 306.985 139.813 308.526C128.208 310.013 116.053 312.655 105.025 316.537C94.8222 320.143 85.3345 325.511 75.2143 329.365C75.2143 326.419 75.2143 323.061 74.5818 320.198C84.0145 315.959 93.3372 311.389 102.99 307.783C115.393 303.158 128.098 299.222 141.023 296.304C151.913 293.827 163.024 292.01 174.189 291.569C179.277 291.377 184.447 291.569 189.452 292.588C193.852 293.496 196.629 296.111 200.507 297.818C200.562 297.846 200.645 297.846 200.699 297.873C201.855 299.139 202.872 300.543 204.137 301.92C204.275 302.057 204.412 302.195 204.55 302.333C206.172 305.691 207.41 308.554 207.877 312.022C207.877 312.242 207.932 312.463 207.96 312.683C197.399 312.49 186.949 308.361 176.416 307.398L176.444 307.343ZM220.197 290.991C218.245 292.918 215.577 295.754 213.212 298.974C217.2 291.322 224.708 285.513 231.528 280.614C231.748 280.476 231.94 280.338 232.16 280.173C227.98 283.614 223.937 287.248 220.197 290.964V290.991ZM253.583 263.216C244.26 267.758 235.35 273.264 227.183 279.65C219.922 285.321 211.92 293.166 210.38 302.718C210.352 302.911 210.38 303.076 210.517 303.214C210.517 303.269 210.462 303.296 210.462 303.351C210.462 303.351 210.462 303.324 210.462 303.296C209.692 302.746 208.895 302.278 208.097 301.81C208.345 301.865 208.62 301.92 208.895 301.892C209.17 301.892 209.362 301.644 209.307 301.369C208.84 299.607 207.575 298.176 207.08 296.332C206.502 294.185 206.64 291.872 207.025 289.643C216.705 268.969 240.493 257.656 261.173 251.572C283.256 245.076 306.219 243.507 328.577 249.095C330.2 249.508 331.437 247.663 330.915 246.397C331.492 246.204 332.015 245.764 332.29 245.186C332.565 245.626 332.84 246.039 333.115 246.452C332.95 246.782 332.895 247.195 333.06 247.636C333.445 248.654 333.747 249.48 333.912 250.416C307.072 254.958 278.746 250.967 253.611 263.189L253.583 263.216ZM328.77 255.729C331.355 255.261 333.967 254.71 336.525 253.967C337.432 253.719 337.845 252.976 337.9 252.15C338.752 253.94 339.55 255.756 340.292 257.601C336.497 256.692 332.647 256.114 328.77 255.701V255.729Z" fill="#003555"/>
<path d="M119.05 138.215C108.545 135.682 96.1145 137.802 85.8843 140.61C76.2591 143.252 64.5988 148.235 59.5662 157.429C59.1812 158.117 59.3737 159.108 60.1162 159.493C60.3087 159.603 60.5012 159.686 60.6937 159.796C61.1062 160.016 61.7388 160.016 62.0688 159.631C62.4538 159.328 62.8663 159.025 63.2788 158.723C63.6913 158.53 63.6088 158.034 63.3338 157.759C63.3888 157.704 63.4163 157.649 63.4713 157.566C64.2413 156.686 65.0938 155.887 65.9464 155.089C67.9264 153.217 70.2089 151.731 72.5465 150.354C77.4141 147.464 82.8592 145.592 88.3043 144.133C97.1595 141.766 105.767 141.518 114.677 141.876C114.485 142.647 115.145 143.5 116.052 143.28C117.372 142.949 118.39 142.536 119.517 141.793C120.893 140.912 120.783 138.6 119.05 138.187V138.215Z" fill="#003555"/>
<path d="M121.8 173.174C120.948 170.009 116.19 169.568 113.44 169.293C108.05 168.77 102.687 169.513 97.4346 170.725C87.6443 172.982 76.0391 177.661 69.714 185.809C68.9164 186.828 69.989 188.755 71.254 187.819C72.1065 187.158 72.9865 186.745 73.8391 186.112C74.0591 185.947 74.1691 185.754 74.1966 185.534C80.6867 180.855 88.1119 177.579 95.7845 175.349C100.35 174.028 105.08 173.285 109.837 173.229C111.982 173.229 114.127 173.505 116.217 174C117.922 174.413 119.215 175.349 120.948 174.716C121.58 174.496 121.993 173.89 121.8 173.202V173.174Z" fill="#003555"/>
<path d="M141.243 208.3C139.29 204.198 131.893 203.482 127.878 203.014C121.608 202.271 115.09 203.372 108.985 204.831C96.912 207.749 83.1617 213.53 74.004 222.118C73.234 222.834 74.004 224.265 75.0491 223.908C76.5341 223.385 77.9091 222.862 79.3117 222.146C79.5592 222.008 79.6692 221.816 79.6967 221.623C88.6894 217.108 97.3521 212.401 107.17 209.538C113.027 207.832 119.078 206.868 125.183 206.978C128.098 207.033 130.958 207.556 133.735 208.382C135.99 209.043 137.695 210.529 140.06 210.337C141.133 210.254 141.683 209.263 141.215 208.327L141.243 208.3Z" fill="#003555"/>
<path d="M152.573 238.497C148.008 238.222 143.388 239.846 138.933 240.644C133.9 241.553 128.813 242.213 123.78 243.067C115.145 244.525 106.07 246.452 99.1397 252.151C98.4522 252.701 99.1947 253.995 100.02 253.665C108.655 250.224 117.345 248.104 126.53 246.7C131.04 246.012 135.55 245.379 140.033 244.636C144.488 243.892 149.438 243.314 153.123 240.506C153.948 239.873 153.701 238.607 152.601 238.525L152.573 238.497Z" fill="#003555"/>
<path d="M241.51 88.0325C228.53 89.6566 216.127 96.3183 205.649 103.943C204.082 105.072 191.046 114.514 196.794 116.689C197.839 117.074 198.389 115.505 197.537 114.954C197.289 114.789 211.067 104.632 212.469 103.751C220.692 98.6856 229.382 94.9419 238.705 92.7122C238.485 93.3728 238.265 94.0335 238.1 94.7217C237.907 95.3823 238.788 95.9329 239.255 95.4099C240.465 94.0886 241.648 92.7122 242.968 91.4735C244.123 90.3724 243.325 87.8398 241.565 88.0601L241.51 88.0325Z" fill="#003555"/>
<path d="M243.49 130.892C237.77 131.911 232.435 133.7 227.155 136.178C223.387 137.939 219.812 140.086 216.21 142.151C214.339 143.225 212.304 144.161 210.599 145.454C210.187 145.785 209.774 146.115 209.389 146.445C209.004 146.61 208.812 146.776 208.702 146.968C208.234 146.665 207.492 146.776 207.217 147.464C206.969 147.904 206.832 148.372 206.749 148.84C206.667 149.336 206.804 149.969 207.299 150.189C209.857 151.4 214.367 147.271 216.512 146.253C223.552 142.839 230.07 138.407 237.687 136.315C241.538 135.269 245.525 134.553 249.513 134.058C251.438 133.838 258.973 132.709 260.073 134.994C260.458 135.765 261.75 135.572 261.915 134.746C263.676 126.571 247.34 130.122 243.463 130.81L243.49 130.892Z" fill="#003555"/>
<path d="M255.123 160.65C250.311 161.998 245.36 163.375 240.768 165.357C237.743 166.678 234.855 168.385 231.94 169.899C230.153 170.835 225.34 172.789 225.037 174.441C225.257 173.285 223.69 172.872 223.305 173.973C222.92 175.074 222.92 177.414 224.9 176.781C229.988 175.184 234.965 172.459 239.778 170.146C244.783 167.752 250.036 166.513 255.288 164.944C258.781 163.898 264.693 161.723 265.821 166.788C265.958 167.394 266.976 167.586 267.251 166.981C270.908 158.392 260.458 159.246 255.178 160.705L255.123 160.65Z" fill="#003555"/>
<path d="M269.341 191.838C264.803 184.626 254.381 188.975 248.413 191.783C245.69 193.049 243.133 194.535 240.575 196.022C239.118 196.875 237.633 197.701 236.175 198.582C235.653 198.885 235.158 199.16 234.635 199.463C234.415 199.6 234.223 199.738 234.003 199.876C233.92 199.903 233.838 199.931 233.783 199.986C233.15 199.711 232.353 199.793 231.885 200.536C231.693 200.812 231.555 201.087 231.5 201.417C231.39 202.16 231.583 202.711 232.215 203.151C234.773 204.968 241.428 200.096 243.463 198.967C246.295 197.398 249.128 195.939 252.071 194.59C254.848 193.297 257.736 192.416 260.788 192.14C263.373 191.893 266.041 192.911 268.626 193.131C269.258 193.187 269.671 192.388 269.368 191.865L269.341 191.838Z" fill="#003555"/>
<path d="M273.163 207.639C267.636 205.932 260.403 210.006 255.425 212.291C248.303 215.567 241.62 219.668 234.525 222.972C232.957 223.687 234.085 226.247 235.68 225.724C241.62 223.797 247.12 220.88 252.675 218.099C256.195 216.337 259.771 214.741 263.483 213.365C266.756 212.153 270.551 212.016 273.493 210.171C274.511 209.538 274.318 207.997 273.163 207.666V207.639Z" fill="#003555"/>
<path d="M243.903 350.754C243.133 351.552 240.575 353.369 241.785 354.58C243.023 355.819 244.838 353.259 245.608 352.46C246.708 351.332 245.003 349.625 243.875 350.726L243.903 350.754Z" fill="#00B2B2"/>
<path d="M305.421 322.593C305.201 321.933 304.294 321.933 304.101 322.593C304.019 322.869 303.936 323.116 303.854 323.392C303.661 323.392 303.469 323.337 303.304 323.309C301.159 322.951 301.159 326.254 303.304 325.869C305.339 325.511 306.081 324.603 305.449 322.566L305.421 322.593Z" fill="#00B2B2"/>
<path d="M330.42 331.292C329.567 331.292 329.567 332.613 330.42 332.613C331.272 332.613 331.272 331.292 330.42 331.292Z" fill="#00B2B2"/>
<path d="M349.945 90.565C349.835 89.8768 349.395 89.3813 349.257 88.7482C349.092 87.9499 348.707 87.2617 348.102 86.7387C347.36 86.1331 346.535 86.1331 345.792 86.7387C345.325 87.1241 344.885 87.6746 344.747 88.2802C344.555 89.1061 344.115 89.7117 343.95 90.565C343.757 91.6111 343.867 92.8498 344.747 93.593C344.912 93.7307 345.077 93.8683 345.242 94.0059C345.902 95.6025 347.992 95.6025 348.652 94.0059C348.817 93.8683 348.982 93.7307 349.147 93.593C350.027 92.8498 350.137 91.6111 349.945 90.565Z" fill="#00B2B2"/>
<path d="M310.261 0.2203C309.684 0.137718 309.051 -0.0274463 308.474 0.0276085C306.384 0.2203 306.384 3.08315 308.474 3.27584C309.051 3.33089 309.684 3.1382 310.261 3.08315C312.076 2.86293 312.076 0.468046 310.261 0.247827V0.2203Z" fill="#00B2B2"/>
<path d="M97.0769 21.8295C97.0769 21.8295 97.0769 21.5817 97.0769 21.4441C97.0769 20.5907 96.4169 20.1778 95.7569 20.1778C95.0969 20.1778 94.4369 20.5907 94.4369 21.4441C94.4369 21.5817 94.4369 21.6918 94.4369 21.8295C94.4369 21.857 94.4369 21.8845 94.4369 21.912C94.4369 22.6277 94.4369 23.3159 94.4919 24.0316C94.4919 24.8575 95.1244 25.2704 95.7569 25.2428C96.3894 25.2428 97.0219 24.8575 97.0219 24.0316C97.0219 23.3159 97.0494 22.6277 97.0769 21.912C97.0769 21.8845 97.0769 21.857 97.0769 21.8295Z" fill="#00B2B2"/>
<path d="M119.6 51.917C118.198 51.917 118.198 54.1192 119.6 54.1192C121.003 54.1192 121.003 51.917 119.6 51.917Z" fill="#00B2B2"/>
<path d="M4.64758 81.3986C4.64758 81.3986 4.56508 81.3436 4.51008 81.3161C4.51008 81.0408 4.51008 80.7655 4.51008 80.5453C4.59258 77.6274 -0.0825211 77.6274 -1.93486e-05 80.5453C0.0274812 81.8941 0.219985 83.766 1.89752 84.0688C2.36503 84.1514 2.91504 84.1514 3.35505 83.9312C3.82256 83.8211 4.23507 83.6559 4.64758 83.3531C5.3626 82.8301 5.3626 81.9217 4.64758 81.3986Z" fill="#00B2B2"/>
<path d="M31.8456 299.856C31.5156 299.746 31.1306 299.636 30.7731 299.526C30.7731 299.416 30.7731 299.278 30.7731 299.25C30.7731 298.837 30.8556 298.425 30.8831 298.012C31.1856 295.397 26.538 295.397 26.813 298.012C26.9505 299.333 26.978 301.177 28.3255 301.893C28.6831 302.086 29.1231 302.168 29.5081 302.086C29.5081 302.086 29.5081 302.086 29.5356 302.086C29.7281 302.086 29.8931 302.086 30.0856 302.086C30.6906 302.086 31.2406 301.865 31.8181 301.645C32.6981 301.315 32.6981 300.159 31.8181 299.828L31.8456 299.856Z" fill="#00B2B2"/>
<path d="M13.9977 216.503C11.8802 214.328 8.49759 217.714 10.6701 219.834C11.8252 220.962 13.0902 222.724 14.8502 222.751C15.9777 222.751 16.9403 221.788 16.9128 220.687C16.9128 218.925 15.1252 217.659 13.9977 216.503Z" fill="#00B2B2"/>
</g>
<defs>
<clipPath id="clip0_122_2080">
<rect width="350" height="354.938" fill="white"/>
</clipPath>
</defs>
</svg>
