<svg width="24" height="24" viewBox="0 0 24 24" fill="none" xmlns="http://www.w3.org/2000/svg">
<path d="M5 11L6.5 6.5C6.89782 5.71065 7.52049 5.05605 8.2992 4.61739C9.07792 4.17873 9.97196 3.97516 10.875 4.03125L13.125 4.03125C14.028 3.97516 14.9221 4.17873 15.7008 4.61739C16.4795 5.05605 17.1022 5.71065 17.5 6.5L19 11" stroke="currentColor" stroke-width="2" stroke-linecap="round" stroke-linejoin="round"/>
<path d="M2 16C2 17.1046 2.89543 18 4 18H5C6.10457 18 7 17.1046 7 16V15H17V16C17 17.1046 17.8954 18 19 18H20C21.1046 18 22 17.1046 22 16V11H2V16Z" stroke="currentColor" stroke-width="2" stroke-linecap="round" stroke-linejoin="round"/>
<circle cx="7" cy="13" r="1.5" fill="currentColor"/>
<circle cx="17" cy="13" r="1.5" fill="currentColor"/>
<circle cx="7" cy="13" r="0.8" fill="white" opacity="0.4"/>
<circle cx="17" cy="13" r="0.8" fill="white" opacity="0.4"/>
<path d="M8.5 7.5H15.5" stroke="currentColor" stroke-width="1.5" stroke-linecap="round" opacity="0.6"/>
<path d="M9 9H15" stroke="currentColor" stroke-width="1.2" stroke-linecap="round" opacity="0.4"/>
<rect x="3" y="12" width="18" height="1" rx="0.5" fill="currentColor" opacity="0.2"/>
</svg>