<svg width="24" height="24" viewBox="0 0 24 24" fill="none" xmlns="http://www.w3.org/2000/svg">
<path d="M2 17H22V21H2V17Z" stroke="currentColor" stroke-width="2" stroke-linecap="round" stroke-linejoin="round"/>
<path d="M6 17V11C6 9.89543 6.89543 9 8 9H16C17.1046 9 18 9.89543 18 11V17" stroke="currentColor" stroke-width="2" stroke-linecap="round" stroke-linejoin="round"/>
<path d="M10 9V7C10 5.89543 10.8954 5 12 5C13.1046 5 14 5.89543 14 7V9" stroke="currentColor" stroke-width="2" stroke-linecap="round" stroke-linejoin="round"/>
<path d="M2 17L2 3H6V17" stroke="currentColor" stroke-width="2" stroke-linecap="round" stroke-linejoin="round"/>
<path d="M18 17V3H22V17" stroke="currentColor" stroke-width="2" stroke-linecap="round" stroke-linejoin="round"/>
<rect x="8.5" y="12" width="2" height="1.5" rx="0.5" fill="currentColor" opacity="0.6"/>
<rect x="13.5" y="12" width="2" height="1.5" rx="0.5" fill="currentColor" opacity="0.6"/>
<rect x="8.5" y="14.5" width="2" height="1.5" rx="0.5" fill="currentColor" opacity="0.4"/>
<rect x="13.5" y="14.5" width="2" height="1.5" rx="0.5" fill="currentColor" opacity="0.4"/>
<circle cx="4" cy="6" r="0.5" fill="currentColor" opacity="0.5"/>
<circle cx="20" cy="6" r="0.5" fill="currentColor" opacity="0.5"/>
</svg>