<svg width="350" height="296" viewBox="0 0 350 296" fill="none" xmlns="http://www.w3.org/2000/svg">
<g clip-path="url(#clip0_122_2035)">
<path d="M110.8 179.978C110.12 179.461 109.331 180.25 109.875 180.903C110.338 181.502 110.882 182.399 111.752 182.291C112.024 182.263 112.16 182.1 112.188 181.855C112.296 180.985 111.399 180.441 110.8 179.978Z" fill="#003555"/>
<path d="M116.621 185.146C116.485 184.929 116.322 184.738 116.159 184.521C115.452 183.623 114.01 185.065 114.908 185.772C115.098 185.935 115.316 186.099 115.533 186.235C116.186 186.697 117.111 185.772 116.649 185.119L116.621 185.146Z" fill="#003555"/>
<path d="M143.226 268.688C142.737 268.199 142.41 267.763 142.138 267.11C142.057 266.893 141.757 266.866 141.676 267.11C141.404 268.035 141.866 268.797 142.492 269.423C142.954 269.912 143.716 269.151 143.226 268.688Z" fill="#003555"/>
<path d="M132.644 262.649C132.644 262.649 132.644 262.649 132.644 262.595C132.672 262.377 132.644 262.187 132.644 261.996C132.59 261.534 132.209 261.316 131.855 261.425C130.033 258.46 128.89 255.984 129.38 252.149C129.815 248.639 130.713 245.239 130.985 241.73C131.012 241.24 130.25 241.24 130.223 241.73C129.434 249.211 124.075 257.725 131.692 263.547C132.236 263.955 132.916 263.22 132.644 262.676V262.649Z" fill="#003555"/>
<path d="M127.313 261.071C127.068 261.071 126.796 261.071 126.551 261.126C125.381 260.745 124.212 260.446 123.069 259.983C122.253 259.657 121.41 259.385 120.621 258.977C119.859 258.569 119.261 257.916 118.553 257.426C118.281 257.263 117.928 257.535 118.009 257.834C118.526 259.385 119.941 260.174 121.41 260.718C122.171 260.99 123.096 260.935 123.885 260.881C124.674 260.854 125.463 261.017 126.225 261.262C126.034 261.398 126.034 261.643 126.225 261.779C126.524 262.023 126.932 261.969 127.313 261.969C127.884 261.969 127.884 261.044 127.313 261.071Z" fill="#003555"/>
<path d="M113.874 245.892C113.82 245.674 113.466 245.674 113.439 245.892C113.14 247.442 113.221 249.102 113.439 250.68C113.493 251.006 113.874 251.006 113.929 250.68C114.119 249.102 114.228 247.47 113.929 245.892H113.874Z" fill="#003555"/>
<path d="M124.293 200.082C124.048 199.755 123.586 200.027 123.749 200.381C130.985 215.968 128.02 231.393 113.493 241.458C113.194 241.676 113.466 242.165 113.792 241.975C127.476 233.623 134.794 213.738 124.293 200.082Z" fill="#003555"/>
<path d="M121.79 197.198C120.811 198.558 120.076 200.054 119.26 201.523C118.335 203.183 117.138 204.38 115.778 205.658C115.561 205.876 115.778 206.311 116.077 206.202C119.614 204.951 120.756 200.544 122.47 197.606C122.742 197.144 122.062 196.79 121.79 197.198Z" fill="#003555"/>
<path d="M112.024 193.58C111.072 198.041 111.507 202.747 110.637 207.263C110.609 207.48 110.909 207.562 110.963 207.344C111.915 202.965 112.541 198.095 112.405 193.634C112.405 193.416 112.051 193.362 112.024 193.58Z" fill="#003555"/>
<path d="M89.663 229.325C89.3637 228.564 89.0645 227.829 88.6837 227.122C89.0101 226.714 88.8469 225.925 88.194 225.952C88.1396 225.952 88.0852 225.952 88.058 225.952C88.0036 225.898 87.9764 225.843 87.922 225.816C87.8132 225.734 87.6499 225.734 87.5411 225.816C87.2419 226.006 87.0787 226.387 87.1875 226.741C87.2691 227.04 87.4867 227.176 87.7587 227.258C87.7859 227.367 87.8404 227.475 87.8676 227.584C83.2158 223.313 79.7609 218.009 76.1157 212.867C75.9796 212.677 75.6804 212.786 75.7348 213.03C75.8436 213.493 75.9524 213.846 76.1429 214.2C76.034 214.2 75.9524 214.2 75.8708 214.282C75.7892 214.336 75.7892 214.472 75.8708 214.499C76.0068 214.581 76.1973 214.581 76.3605 214.581C76.3877 214.635 76.4149 214.69 76.4693 214.744C76.5237 214.799 76.5781 214.771 76.6053 214.744C76.6325 214.799 76.6597 214.853 76.6869 214.907C77.1766 215.86 77.8023 216.757 78.3735 217.655C79.3801 219.233 80.4954 220.702 81.6108 222.198C83.7326 225 86.0721 227.639 88.7381 229.897C89.1189 230.223 89.9078 229.897 89.6902 229.325H89.663Z" fill="#003555"/>
<path d="M85.8815 215.424C85.147 214.744 84.4125 214.064 83.678 213.384C82.8075 212.622 81.7466 211.806 80.5496 212.187C80.2504 212.296 80.2776 212.813 80.6312 212.785C81.6105 212.649 82.9163 214.445 83.5148 215.071C84.3037 215.887 85.5006 217.764 86.752 217.682C86.9696 217.682 87.2417 217.492 87.2145 217.22C87.1328 216.376 86.48 215.968 85.8543 215.451L85.8815 215.424Z" fill="#003555"/>
<path d="M87.7585 209.983C87.7041 209.766 87.6225 209.603 87.4593 209.412C87.3505 209.276 87.1056 209.276 86.9968 209.412C86.8608 209.603 86.7792 209.766 86.6976 209.983C86.4528 210.854 88.0034 210.854 87.7313 209.983H87.7585Z" fill="#003555"/>
<path d="M90.2614 199.102C89.9349 198.721 89.7989 198.313 89.7445 197.851C89.7445 197.687 89.4997 197.742 89.4725 197.878C89.3909 198.531 89.4725 198.966 89.8805 199.483C90.0982 199.728 90.479 199.374 90.2614 199.102Z" fill="#003555"/>
<path d="M106.964 91.2131C106.855 90.7506 106.094 90.8594 106.148 91.3219C107.155 105.849 107.264 119.015 104.543 133.433C102.095 146.518 98.0688 159.249 95.0492 172.225C94.8588 173.096 96.1645 173.449 96.3822 172.579C102.176 146.953 114.01 117.709 106.964 91.1859V91.2131Z" fill="#003555"/>
<path d="M104.299 95.2123C104.163 94.7226 104.135 94.2057 104.108 93.6889C104.054 92.6279 102.503 92.6279 102.449 93.6889C102.394 94.8042 102.068 97.0349 103.673 97.1981C104.027 97.2253 104.299 96.9261 104.407 96.6269C104.543 96.2732 104.407 95.5931 104.299 95.2123Z" fill="#003555"/>
<path d="M103.809 100.408L103.999 101.306C104.054 101.523 104.38 101.523 104.435 101.306L104.625 100.408C104.788 99.7279 103.646 99.7279 103.782 100.408H103.809Z" fill="#003555"/>
<path d="M229.598 76.4416C228.673 75.2174 226.47 76.0063 225.245 76.2783C224.81 76.3871 224.81 77.04 225.245 77.1216C226.47 77.3937 228.673 78.2098 229.598 76.9584C229.707 76.8224 229.707 76.5504 229.598 76.4143V76.4416Z" fill="#003555"/>
<path d="M173.042 278.536C172.498 278.536 172.498 279.407 173.042 279.407C173.586 279.407 173.586 278.536 173.042 278.536Z" fill="#003555"/>
<path d="M171.164 275.326C170.729 275.326 170.729 276.006 171.164 276.006C171.6 276.006 171.6 275.326 171.164 275.326Z" fill="#003555"/>
<path d="M208.923 270.729C208.052 271.164 207.236 271.681 206.338 272.089C206.039 272.225 206.175 272.606 206.42 272.687C207.563 273.095 208.705 272.633 209.739 272.116C210.664 271.653 209.848 270.266 208.923 270.729Z" fill="#003555"/>
<path d="M195.213 274.021C192.383 274.374 189.826 273.069 187.269 272.062C186.997 271.953 186.725 272.389 186.97 272.579C189.309 274.538 192.084 275.816 195.213 275.435C196.11 275.327 196.11 273.912 195.213 274.021Z" fill="#003555"/>
<path d="M201.551 218.226C201.633 217.981 201.225 217.818 201.116 218.036C195.376 230.359 188.439 241.948 180.686 253.101C177.667 257.454 172.28 265.397 179.408 268.498C179.925 268.716 180.387 267.981 179.843 267.737C171.437 263.847 184.005 249.782 186.834 245.403C192.438 236.725 197.988 227.965 201.524 218.226H201.551Z" fill="#003555"/>
<path d="M208.052 184.603C207.998 184.44 207.726 184.548 207.78 184.712C208.433 186.697 208.569 188.71 208.569 190.805C208.569 191.159 209.113 191.159 209.113 190.805C209.113 188.602 208.896 186.643 208.025 184.603H208.052Z" fill="#003555"/>
<path d="M201.034 172.606C196.518 169.668 191.948 170.81 187.949 174.129C187.704 174.32 188.004 174.646 188.248 174.537C192.601 172.334 196.001 170.212 200.68 173.177C201.034 173.395 201.361 172.851 201.007 172.606H201.034Z" fill="#003555"/>
<path d="M182.862 176.061C180.332 177.339 177.394 179.189 174.456 179.216C170.947 179.243 172.307 173.449 172.389 171.463C172.389 171.11 171.872 171.055 171.79 171.382C171.11 173.694 170.267 178.645 173.341 179.733C176.252 180.767 180.686 177.584 182.998 176.305C183.161 176.224 182.998 175.979 182.862 176.061Z" fill="#003555"/>
<path d="M204.054 123.042C201.361 123.722 198.668 124.511 195.92 125.027C194.097 125.354 192.112 125.408 190.289 125.082C189.391 124.919 188.63 124.483 187.95 123.858C187.242 123.205 186.589 120.947 188.14 120.838C188.466 120.838 188.466 120.321 188.14 120.321C184.114 120.403 185.991 125.245 188.63 126.224C193.499 128.02 199.892 125.925 204.353 123.749C204.734 123.558 204.462 122.96 204.054 123.069V123.042Z" fill="#003555"/>
<path d="M277.938 115.723C277.775 115.478 277.34 115.642 277.448 115.914C282.209 127.475 267.438 122.551 261.698 119.831C251.877 115.179 242.818 113.357 231.964 113.302C230.522 113.302 230.522 115.533 231.964 115.533C241.023 115.614 249.483 116.866 258.08 119.804C262.623 121.354 266.948 123.204 271.654 124.184C278.727 125.625 281.801 122.089 277.911 115.723H277.938Z" fill="#003555"/>
<path d="M269.206 103.02C268.662 103.074 268.118 103.074 267.628 103.292C267.383 103.4 267.383 103.781 267.628 103.89C268.145 104.135 268.662 104.135 269.206 104.162C269.967 104.216 269.967 102.938 269.206 102.992V103.02Z" fill="#003555"/>
<path d="M171.627 281.012C165.071 280.903 157.672 274.32 152.095 271.355C150.681 270.593 144.125 267.111 143.907 270.974C143.907 271.327 144.342 271.463 144.56 271.246C146.627 269.287 156.747 276.795 158.543 277.883C162.242 280.114 167.112 283.651 171.627 283.542C173.26 283.515 173.26 281.066 171.627 281.012Z" fill="#003555"/>
<path d="M304.299 161.017C305.06 160.555 305.496 159.467 304.707 158.596C304.435 158.297 304.135 157.998 303.863 157.698C303.183 152.475 302.449 147.252 301.741 142.056C299.864 128.128 296.709 113.275 288.765 101.387C278.183 79.1347 257.182 59.6026 233.95 51.8224C226.741 45.892 218.227 41.5123 209.168 38.7103C209.739 38.3294 210.066 37.595 209.603 36.8605C209.358 36.4524 209.086 36.0988 208.842 35.7723C211.235 30.0324 204.027 25.3534 199.756 23.1227C191.839 19.015 182.427 18.1445 175.3 12.5406C168.58 7.26308 162.732 4.13468 156.502 12.3501C150.272 20.5928 150.3 32.3991 148.178 42.3284C148.123 42.3284 148.069 42.3012 148.015 42.3012C121.355 40.7234 102.694 67.1923 93.3356 88.6559C81.366 116.159 76.1158 147.334 70.1038 176.523C66.7034 193.036 65.4792 209.739 69.4509 226.251C70.9743 232.589 75.082 237.704 80.3323 240.098C80.4683 241.077 80.7404 242.002 81.0396 242.954C80.1419 243.988 81.9645 246.953 82.835 248.041C84.0048 249.483 85.3922 249.836 86.8339 249.592C88.4389 253.971 91.8666 257.209 95.8927 259.684C99.7556 262.051 107.264 264.554 111.344 261.534C112.242 260.854 111.888 259.657 110.8 259.521C110.202 259.439 109.576 259.439 108.978 259.467C108.678 259.358 108.352 259.222 108.053 259.113C108.025 258.868 107.917 258.65 107.781 258.487C107.944 258.46 108.08 258.378 108.189 258.297C108.434 258.351 108.678 258.433 108.923 258.433C109.603 258.433 109.739 257.589 109.25 257.236C109.141 257.154 109.005 257.1 108.869 257.045C108.869 256.937 108.869 256.828 108.869 256.692C114.228 262.976 119.505 269.505 125.164 275.517C127.177 277.666 131.012 281.393 134.522 281.719C134.522 281.773 134.494 281.801 134.467 281.855C134.277 281.801 134.059 281.773 133.923 281.746C133.57 281.746 133.216 281.964 133.053 282.236C132.155 283.814 133.461 285.691 134.93 286.779C141.567 295.783 181.556 294.45 187.215 294.885C201.687 295.974 216.404 294.885 230.904 294.613C238.221 294.477 245.485 294.178 252.802 294.314C258.107 294.423 263.194 294.749 268.444 293.77C276.442 292.274 280.713 286.289 284.086 279.434C286.78 273.993 289.962 269.015 293.254 263.901C295.049 261.126 296.219 257.998 297.389 254.896C298.395 252.829 299.32 250.707 300.164 248.531C300.517 247.905 300.871 247.279 301.279 246.654C301.469 246.382 301.306 246.11 301.089 245.974C303.809 238.112 305.414 229.815 306.366 221.871C308.787 201.686 306.937 181.202 304.326 160.99L304.299 161.017ZM199.864 27.9377C199.864 27.9377 199.837 28.0737 199.864 28.1553C199.892 28.509 201.446 27.5841 201.5 27.9377C200.031 26.3871 196.736 26.3055 194.777 25.1358C196.736 26.0063 198.395 26.904 199.864 27.9377ZM179.897 23.3131C184.494 25.2446 189.201 26.7952 193.308 29.1619C195.92 30.9301 198.178 33.188 200.028 36.4252C187.378 34.0857 174.13 34.793 162.079 38.7375C161.834 38.3294 161.616 37.8942 161.399 37.4589C161.698 37.2141 161.943 36.8877 161.997 36.534C162.868 31.3926 160.555 26.6864 164.554 22.1162C168.363 17.7908 175.898 21.5993 179.924 23.2859L179.897 23.3131ZM173.586 14.9345C173.45 14.88 173.314 14.8256 173.151 14.7712C171.954 14.3904 170.088 10.1521 169 10.0433C168.211 9.03673 166.177 12.3501 166.268 12.4861C166.159 12.3229 168.636 9.70648 168.5 9.54326C168.31 9.35283 167.218 10.5768 167 10.4408C166.538 10.1143 168.044 8.73368 167.5 8.54326C167.228 8.43444 163.058 10.6635 162.759 10.6907C166.459 8.70486 170.321 12.1325 173.559 14.9617L173.586 14.9345ZM161.317 11.7789C161.317 11.7789 161.317 11.8605 161.344 11.8877C161.644 12.4045 155.51 13.7647 156 14.0367C154.368 14.7168 159.494 14.9617 158.352 16.213C157.917 16.6755 159.381 19.5264 159 20.0433C160.007 17.7854 159.467 13.3839 161.317 11.7789ZM154.815 39.0367C155.74 39.4992 156.965 39.2 157.264 38.1662C157.345 38.4111 157.4 38.6831 157.481 38.9279C156.556 39.2272 155.659 39.4992 154.734 39.744C154.761 39.4992 154.788 39.2816 154.843 39.0367H154.815ZM154.054 27.9921C154.081 28.7538 152.337 33.052 152.5 33.7865C152.5 33.8681 154.38 30.4132 154.435 30.4948C154.244 31.5014 153.582 26.5095 153.5 27.5433C153.174 27.4889 153.319 33.6232 153.02 33.7865C153.374 31.855 153.7 29.9236 154.054 27.9921ZM188.031 38.5471C192.928 38.6015 197.607 39.2816 202.122 40.3697C202.394 40.6145 202.748 40.7506 203.21 40.7778H203.673C210.963 42.7364 217.846 45.8376 224.565 49.5101C214.391 47.9595 203.891 49.1292 193.716 50.5166C181.502 52.176 166.975 55.0052 157.645 63.7375C157.4 63.9551 157.318 64.2272 157.345 64.472C141.839 72.9867 136.235 93.3893 133.95 109.82C132.046 123.476 131.992 137.296 131.556 151.061C131.312 158.841 130.795 166.567 131.094 174.347C131.203 176.85 131.502 179.298 131.828 181.773C127.993 182.535 122.688 182.073 118.091 180.413C115.425 179.189 112.922 177.557 110.555 175.408C111.099 175.517 111.698 175.299 111.916 174.592C114.908 164.853 113.303 153.835 113.058 143.797C112.759 131.746 113.113 119.314 113.874 107.29C114.636 95.0487 117.846 82.6439 124.456 72.2522C130.55 62.7038 138.412 55.2772 147.117 48.3947C160.474 42.4372 173.015 38.3294 187.949 38.5199L188.031 38.5471ZM76.9047 232.263C73.069 227.176 72.5249 219.151 71.736 213.057C69.5597 196.436 73.6675 179.271 77.5031 163.193C83.2975 139.037 87.8405 114.118 97.6337 91.1586C102.177 80.522 108.134 70.756 116.186 62.4045C125.136 53.1553 135.936 49.5645 147.634 45.3479C147.634 45.3479 147.661 45.3752 147.688 45.4024C146.845 45.9464 145.974 46.4905 145.158 47.0618C144.832 47.2794 144.696 47.6058 144.696 47.9051C136.97 52.8561 130.142 60.1466 124.62 67.0019C117.302 76.0607 113.439 86.5612 111.888 98.0683C110.229 110.283 111.127 122.742 111.154 135.011C111.154 140.179 111.426 145.375 111.535 150.517C111.099 150.19 110.365 150.109 109.957 150.68C102.422 160.827 101.061 173.803 100.218 186.072C99.2659 199.592 101.769 213.601 99.5108 226.931C97.6609 237.894 83.5423 240.995 76.9591 232.236L76.9047 232.263ZM86.6979 246.436C85.637 246.762 84.7393 246.001 84.0592 245.158C84.3584 244.151 83.8416 242.954 83.5151 242.002C83.4063 241.703 83.2975 241.431 83.1615 241.131C83.4607 241.213 83.7599 241.24 84.0592 241.295C84.0592 241.349 84.0592 241.403 84.0592 241.431C84.032 241.893 84.1136 242.328 84.2224 242.764C84.44 243.743 84.8481 244.613 85.501 245.375C86.045 246.001 86.9428 245.702 87.3508 245.13C87.4596 244.967 87.5412 244.804 87.5956 244.641C88.0853 244.913 88.575 245.103 89.1734 245.103C89.2278 245.103 89.2823 245.103 89.3095 245.103C88.4934 245.674 87.65 246.164 86.7251 246.463L86.6979 246.436ZM91.5673 243.335C91.6218 243.09 91.5673 242.818 91.4041 242.628C90.588 241.839 89.5543 242.165 88.847 242.845C88.3845 242.573 87.8677 242.192 87.5684 241.893C87.4324 241.757 87.2692 241.675 87.0788 241.621C88.1941 241.621 89.3095 241.512 90.4248 241.267C90.4248 241.295 90.4248 241.349 90.452 241.376C90.8873 242.22 91.4585 242.464 91.8938 243.063C91.785 243.144 91.6762 243.253 91.5673 243.335ZM270.24 289.581C261.072 293.253 248.64 290.533 239.037 290.914C226.306 291.403 213.684 293.199 200.925 293.471C192.547 293.634 133.053 292.764 137.568 281.692C137.677 281.393 137.677 281.148 137.568 280.903C137.84 280.712 138.112 280.468 138.385 280.196C138.956 279.597 138.575 278.645 137.949 278.427C138.711 276.904 140.234 275.707 141.459 274.592C142.547 273.585 144.397 271.871 143.716 270.266C143.608 270.049 143.254 269.94 143.064 270.103C142.275 270.702 142.084 271.681 141.54 272.497C140.86 273.504 139.799 274.292 138.929 275.109C137.759 276.224 137.079 277.312 136.888 278.672C131.611 281.773 123.559 270.511 120.675 267.192C115.588 261.316 110.365 257.426 107.318 250C103.564 240.805 105.713 229.325 106.257 219.749C106.992 207.209 106.72 194.858 106.692 182.345C106.692 182.1 106.312 182.1 106.312 182.345C106.148 198.231 103.999 214.309 102.938 230.196C102.34 239.091 101.85 248.068 107.617 255.25C107.481 255.223 107.345 255.196 107.209 255.196C103.918 255.114 100.844 253.808 98.0962 252.094C95.6207 250.571 94.2877 248.531 92.8731 246.3C93.4988 245.838 94.0701 245.375 94.5869 245.021C95.1854 244.613 95.5391 243.933 95.3214 243.199C95.0222 242.138 94.4237 240.968 93.5804 240.261C93.7164 240.206 93.8524 240.179 93.9613 240.125C94.1517 240.288 94.4237 240.397 94.6957 240.397C95.1582 240.397 95.3214 239.88 95.1038 239.581H95.131C100.164 236.888 100.381 230.196 101.007 225.299C101.986 217.383 101.089 209.222 101.061 201.278C100.98 185.391 101.741 165.179 111.48 151.986C111.589 157.399 111.48 162.813 110.691 168.172C108.678 169.124 107.073 170.81 106.094 172.851C104.843 175.462 105.196 177.883 105.876 180.549C105.931 180.74 106.176 180.685 106.176 180.522C106.339 178.808 106.665 177.149 107.155 175.598C107.209 175.653 107.291 175.707 107.345 175.734C111.235 181.637 118.308 184.711 125.354 184.983C128.074 185.31 130.686 185.255 132.781 184.766C133.053 185.337 133.297 185.908 133.461 186.398C132.073 193.716 133.025 201.333 133.325 208.732C133.678 217.492 133.461 226.088 132.318 234.766C130.931 245.484 130.006 257.698 139.364 265.043C139.527 265.179 139.745 264.962 139.609 264.798C129.244 254.298 135.093 239.608 136.344 226.795C137.024 219.94 136.644 212.976 136.344 206.148C136.072 199.809 136.181 193.335 135.202 187.051C135.474 186.561 135.555 185.963 135.474 185.419C135.365 184.766 135.311 184.14 135.202 183.487C135.365 183.052 135.283 182.535 135.011 182.127C134.222 176.115 133.814 170.212 133.896 164.064C134.086 150.381 134.522 136.616 135.365 122.959C136.671 101.768 141.05 79.0259 158.352 65.5601C158.515 65.5601 158.678 65.5329 158.842 65.4513C178.646 53.8898 206.42 48.4491 228.999 53.645C230.55 53.9987 232.073 54.4339 233.624 54.9236C233.787 55.0324 233.95 55.114 234.114 55.2228C234.386 55.386 234.658 55.4132 234.902 55.3588C254.054 61.7244 271.926 77.0672 282.998 94.4774C273.695 84.9562 260.419 79.6243 247.253 77.8833C243.064 77.3392 238.929 77.0944 234.712 77.3936C234.25 77.4208 234.25 78.1281 234.712 78.1281C249.647 77.8017 266.703 83.5416 277.966 93.4165C290.588 104.488 295.213 123.014 298.042 138.846C298.967 144.097 299.864 149.374 300.653 154.679C280.305 135.827 250.544 134.276 224.021 137.894C208.923 139.962 192.247 142.791 178.591 149.782C172.933 152.693 167.982 156.801 163.33 161.099C160.664 163.574 157.672 166.131 155.55 169.178C155.604 168.253 155.632 167.356 155.686 166.431C156.774 145.402 160.066 125.381 174.429 109.058C186.888 94.8855 203.646 81.5558 222.579 78.1553C223.042 78.0737 222.933 77.2848 222.47 77.3392C202.748 79.5971 185.746 93.2261 172.851 107.481C158.542 123.232 154.951 143.607 153.727 164.173C153.537 167.464 153.346 170.756 153.183 174.048C153.102 174.32 153.02 174.564 152.966 174.837C152.938 174.973 153.02 175.081 153.129 175.109C151.986 197.143 151.415 219.45 152.748 241.376C153.646 255.93 153.945 274.564 169.941 280.794C170.811 281.148 171.274 279.815 170.566 279.352C154.516 268.797 155.713 247.959 154.897 230.767C153.972 210.881 154.516 191.104 155.496 171.273C158.488 167.383 163.249 164.608 166.812 161.48C171.382 157.453 176.388 154.053 181.828 151.278C194.533 144.804 210.583 143.117 224.565 141.539C226.415 141.322 228.292 141.159 230.196 140.995C224.864 164.934 225.953 189.69 223.341 213.982C221.926 227.203 220.838 240.37 220.321 253.645C220.022 261.616 222.035 274.184 215.615 280.223C214.69 281.093 215.071 282.236 215.86 282.807C202.394 283.841 188.956 284.739 175.98 280.359C175.272 280.114 174.892 281.175 175.49 281.529C182.318 285.691 190.098 287.078 197.987 286.915C209.168 286.67 220.349 284.875 231.584 284.603C246.654 284.222 261.453 285.011 275.3 278.183C279.407 276.142 282.998 273.585 286.127 270.593C281.72 277.883 278.7 286.316 270.158 289.717L270.24 289.581ZM243.308 281.583C240.289 281.61 237.269 281.61 234.277 281.637C228.918 281.692 223.531 282.073 218.145 282.481C223.45 277.72 223.45 268.689 223.722 262.105C224.212 249.428 224.212 236.779 225.055 224.129C225.953 210.663 226.796 197.307 227.258 183.814C227.748 169.369 228.346 154.924 231.23 140.751C240.806 139.989 250.762 139.907 260.392 141.186C260.256 141.24 260.175 141.376 260.093 141.539C258.08 142.764 257.889 152.23 257.808 153.21C256.692 166.458 255.468 179.543 253.455 192.709C251.252 206.991 250.653 221.137 250.164 235.555C249.701 249.619 249.919 266.947 242.846 279.57C242.383 280.386 242.71 281.148 243.281 281.583H243.308ZM304.462 214.2C303.102 236.561 296.654 261.724 276.442 274.32C267.003 280.196 256.148 281.311 245.294 281.556C245.403 281.447 245.512 281.338 245.593 281.175C250.681 271.953 251.633 260.283 252.503 249.918C253.7 235.745 253.346 221.49 254.38 207.317C255.496 192.192 258.352 177.203 259.386 162.024C259.522 160.011 259.222 146.3 260.311 142.872C260.338 142.9 260.365 142.927 260.419 142.981C260.583 143.144 260.827 143.144 260.991 142.981C261.072 142.927 261.317 142.519 261.208 142.655C261.426 142.356 261.426 142.084 261.399 141.757C261.399 141.539 261.29 141.403 261.181 141.295C276.197 143.389 290.479 148.721 301.497 159.711C304.054 177.774 305.523 196.137 304.462 214.173V214.2Z" fill="#003555"/>
<path d="M38.928 136.996C71.1642 111.615 81.2838 69.5589 69.94 31.2292C70.212 31.3652 70.4569 31.5012 70.7017 31.6372C73.0412 32.7526 75.3263 33.9495 77.7202 34.9561C80.3861 36.0714 81.9367 32.3717 79.2436 31.3108C76.8497 30.3315 74.5102 29.2433 72.0891 28.264C71.0009 27.8287 69.8856 27.5567 68.743 27.3391C68.5526 26.795 68.199 26.4142 67.8181 26.1149C67.7637 24.918 66.1587 24.2651 65.3154 25.462C65.3154 25.4892 65.261 25.5436 65.2338 25.5709C64.0096 25.8973 63.0575 26.931 63.3296 28.4272C62.3502 29.8962 61.3709 31.3652 60.2284 32.6982C58.7322 34.4664 56.039 35.745 55.7126 38.1389C55.6582 38.4925 56.0118 38.8734 56.3383 38.955C58.9226 39.5806 61.0717 36.6971 62.5406 34.9561C63.2207 34.1399 63.8464 33.2966 64.4721 32.3989C76.0064 71.2999 64.9074 106.12 38.4656 136.479C38.1935 136.806 38.6016 137.187 38.928 136.942V136.996Z" fill="#F2F8FC"/>
<path d="M349.511 180.822C326.85 163.411 318.444 139.309 315.398 111.779C314.119 100.163 313.684 88.4386 312.732 76.7955C312.677 76.2786 312.65 75.7345 312.623 75.1905C314.309 77.6388 318.009 75.1905 317.139 72.4973C316.078 69.1241 314.527 65.8869 313.466 62.4864C312.324 58.9228 311.698 55.2231 310.555 51.6595C310.011 49.9728 307.372 50.2449 307.1 51.9315C306.312 50.8706 304.87 50.3265 303.374 51.2786C297.226 55.2231 290.316 59.6029 285.691 65.37C283.569 68.036 287.187 72.2253 289.881 69.8314C293.716 66.4309 297.634 63.1393 301.578 59.9021C301.66 67.7367 304.543 77.1763 305.115 83.8956C306.176 96.7356 306.992 109.494 309.25 122.171C313.738 147.416 326.85 168.118 347.933 182.699C349.239 183.596 350.789 181.774 349.511 180.767V180.822Z" fill="#F2F8FC"/>
<path d="M0.952453 33.2152C-0.326111 33.2152 -0.326111 35.201 0.952453 35.201C2.23102 35.201 2.23102 33.2152 0.952453 33.2152Z" fill="#F2F8FC"/>
<path d="M12.5956 39.2272C12.3508 38.6559 11.3443 38.6559 11.0994 39.2272C10.8274 39.8529 10.637 40.4514 10.5282 41.1042C10.1473 43.3077 13.5478 43.3077 13.1669 41.1042C13.0581 40.4242 12.8405 39.8529 12.5956 39.2272Z" fill="#F2F8FC"/>
<path d="M225.843 46.8991C224.51 46.9263 223.585 47.4431 222.796 48.5041C222.66 48.7217 222.552 48.9665 222.47 49.1842C222.905 48.0144 222.171 49.565 222.144 49.701C221.953 50.2179 221.872 50.7892 221.79 51.3332C221.219 55.0057 226.795 55.0329 226.387 51.9589C226.333 51.4965 226.279 51.034 226.251 50.5715C226.251 50.5171 226.251 50.4627 226.251 50.3811C228.128 49.7826 228.101 46.7903 225.87 46.8719L225.843 46.8991Z" fill="#F2F8FC"/>
<path d="M277.476 24.2928C277.013 23.9119 276.605 23.5855 276.007 23.4495C275.109 23.2862 275.381 23.2046 276.061 23.5855C275.517 23.2862 275.027 23.259 274.429 23.3678C272.715 23.6943 272.525 25.5441 272.443 26.9587C272.28 30.0055 277.313 30.0055 277.149 26.9587C277.149 26.7139 277.149 26.469 277.149 26.2242C277.258 26.1426 277.367 26.0882 277.476 26.0066C277.938 25.6257 277.965 24.6736 277.476 24.2928Z" fill="#F2F8FC"/>
<path d="M205.876 110.827C204.108 110.827 204.108 113.574 205.876 113.574C207.644 113.574 207.644 110.827 205.876 110.827Z" fill="#F2F8FC"/>
<path d="M135.147 183.487C133.542 183.487 133.542 185.963 135.147 185.963C136.752 185.963 136.752 183.487 135.147 183.487Z" fill="#F2F8FC"/>
<path d="M130.767 236.861C130.821 235.827 130.631 234.821 130.087 234.005C129.298 231.964 127.067 231.529 125.897 233.433C124.292 234.848 123.966 237.868 124.7 239.745C125.272 241.159 126.605 242.601 128.318 242.111C128.454 242.111 128.999 242.03 129.162 242.002C129.787 241.894 130.386 241.54 130.93 241.241C132.725 240.261 132.209 237.65 130.767 236.888V236.861Z" fill="#F2F8FC"/>
<path d="M331.284 253.645C326.469 253.645 326.469 261.099 331.284 261.099C336.099 261.099 336.099 253.645 331.284 253.645Z" fill="#F2F8FC"/>
<path d="M248.504 3.12846C248.504 3.12846 248.449 3.07406 248.422 3.07406C248.531 2.20355 248.123 1.33303 247.116 1.0338C247.089 1.00659 247.062 0.979389 247.035 0.952186C245.729 -0.353581 243.825 -0.19036 242.519 0.952186C238.357 4.51584 245.484 10.3918 249.184 8.40594C249.891 8.02509 250.489 7.10017 250.408 6.28407C250.245 4.76067 249.646 4.08059 248.531 3.15567L248.504 3.12846Z" fill="#F2F8FC"/>
<path d="M24.3474 236.262C23.0416 236.153 21.9263 236.235 21.1102 237.377C20.3485 238.438 20.7293 239.717 21.4094 240.669C22.0079 241.512 23.0688 241.512 23.6673 240.669C23.6673 240.669 23.9121 240.343 24.0482 240.179C24.157 240.179 24.2658 240.179 24.3746 240.179C26.8773 239.989 26.8773 236.48 24.3746 236.289L24.3474 236.262Z" fill="#F2F8FC"/>
</g>
<defs>
<clipPath id="clip0_122_2035">
<rect width="350" height="295.375" fill="white"/>
</clipPath>
</defs>
</svg>
