<svg width="350" height="355" viewBox="0 0 350 355" fill="none" xmlns="http://www.w3.org/2000/svg">
<g clip-path="url(#clip0_122_2080)">
<path d="M340.98 252.537C339.632 249.512 338.752 245.415 336.58 242.94C336.36 242.72 336.057 242.665 335.782 242.747C319.887 217.337 315.817 185.243 311.719 156.148C308.997 136.787 305.422 117.565 303.442 98.0941C303.029 93.969 303.689 86.9014 300.609 83.4638C298.134 80.7138 294.009 80.6038 290.489 80.2187C290.351 76.3962 290.489 72.5736 291.066 68.806C291.204 67.8435 290.819 67.101 289.911 66.7435C286.556 65.4784 283.146 64.4059 279.599 64.0209C279.351 62.4809 279.049 60.9683 278.581 59.5658C279.791 58.8783 280.259 57.1182 278.691 56.2107C269.946 51.1781 257.186 56.1007 248.551 59.0433C235.543 63.4709 222.452 68.0635 209.912 73.6736C196.547 79.6412 183.182 87.1214 172.181 96.8566C167.176 101.312 159.366 108.627 157.551 116.272C156.754 116.492 156.121 117.097 156.231 118.032C156.341 118.967 156.534 119.847 156.699 120.755C155.984 120.122 155.324 119.49 154.718 118.94C151.666 116.052 147.981 113.632 144.461 111.322C136.953 106.372 128.483 103.292 119.573 102.109C106.152 100.349 92.1822 101.422 78.8444 103.127C63.9391 105.052 48.9237 108.434 35.3109 114.979C29.6733 117.702 24.3382 121.222 20.0481 125.787C17.0231 129.005 12.788 134.587 14.108 139.208C14.3555 140.033 15.483 140.473 16.143 139.868C17.4906 141.408 18.7281 143.003 19.9106 144.653C19.8006 144.735 19.7181 144.818 19.6356 144.928C16.1705 149.878 12.3755 155.185 10.5604 160.988C8.82788 166.488 13.8605 173.528 16.528 177.901C21.0106 185.216 25.8232 192.064 29.3433 199.956C34.2934 211.039 37.6485 223.112 40.3711 234.882C43.0661 246.515 44.8261 258.368 46.7237 270.138C48.0712 278.361 49.8038 286.528 50.8488 294.806C51.6738 301.378 52.4163 307.951 53.5438 314.469C54.0113 317.301 54.3964 323.104 57.2014 325.139C57.0089 325.827 57.4764 326.679 58.3289 326.377C62.564 324.892 66.7441 323.214 70.8692 321.426C70.7592 324.892 71.4467 328.714 71.4467 331.684C71.4467 332.867 72.6567 333.912 73.8393 333.499C83.7395 330.144 93.0072 325.277 102.687 321.426C113.963 316.944 126.393 314.414 138.356 312.489C150.703 310.481 163.931 310.179 176.389 311.086C187.527 311.911 198.224 316.586 209.417 316.366C209.5 316.476 209.527 316.586 209.61 316.696C209.967 317.191 210.792 317.054 210.82 316.366C210.82 316.311 210.82 316.256 210.82 316.201C211.617 315.926 212.25 315.211 212.222 314.276C212.167 312.874 211.975 311.444 211.727 310.041C213.817 302.259 219.29 296.428 225.67 290.626C233.453 283.531 242.115 276.82 250.888 271.018C262.218 263.538 275.446 259.633 288.866 258.395C291.506 258.203 294.174 258.065 296.842 257.955C303.552 257.845 310.317 258.395 316.999 258.725C319.062 258.835 321.125 258.945 323.187 259.083C311.582 260.925 300.389 265.023 289.691 270.11C279.599 274.923 269.753 279.571 259.331 283.723C248.798 287.931 238.155 292.221 228.448 298.133C221.242 302.534 213.185 308.749 211.755 317.604C211.645 318.264 212.525 318.511 212.745 317.879C215.907 309.299 224.432 303.909 232.078 299.673C241.785 294.283 252.208 290.351 262.576 286.446C287.519 277.04 310.372 261.585 338.01 262.163C338.752 262.163 339.275 261.86 339.605 261.393C340.375 261.558 340.98 261.31 341.42 260.87C341.557 261.338 341.695 261.805 341.805 262.273C341.915 262.74 342.52 262.575 342.575 262.163C343.043 258.56 342.383 255.783 340.897 252.427L340.98 252.537ZM298.849 87.6164C299.729 90.944 299.509 94.7391 299.757 98.1216C300.087 102.769 300.582 107.417 301.132 112.037C303.057 128.647 305.917 145.175 308.337 161.73C304.817 147.43 302.369 132.937 298.409 118.692C295.164 107.087 291.396 94.6841 290.599 82.3638C293.981 83.2988 297.942 84.1788 298.877 87.6164H298.849ZM287.739 69.4935C286.446 85.5264 289.746 100.789 293.706 116.3C294.091 117.812 294.504 119.297 294.889 120.81C292.001 113.164 289.086 105.547 286.721 97.7091C284.494 90.3115 282.624 82.8038 281.029 75.2411C280.479 72.5736 280.259 69.576 279.929 66.6335C282.569 67.376 285.236 68.476 287.739 69.4935ZM166.269 108.104C169.734 104.309 173.584 100.789 177.544 97.5441C188.242 88.7989 201.029 82.1438 213.597 76.5337C224.46 71.6936 235.845 68.0085 247.038 63.9659C255.178 61.0233 266.783 56.1282 275.556 59.2908C274.401 63.7184 275.859 69.1635 276.574 73.4536C277.811 80.9888 279.764 88.4139 281.854 95.7291C286.254 111.212 292.854 125.815 297.749 141.105C305.394 164.976 309.657 189.864 316.807 213.817C317.797 219.674 318.815 225.532 320.327 231.279C321.345 235.185 322.555 239.86 325.772 242.61C326.405 243.132 327.092 243.16 327.642 242.94C327.89 243.49 328.137 244.067 328.412 244.617C319.337 241.015 308.309 240.905 298.794 241.125C285.291 241.482 271.816 243.847 258.891 247.642C243.765 252.07 226.165 259.633 215.027 271.98C211.177 272.228 208.125 276.298 206.2 281.358C206.172 269.175 205.045 256.855 203.917 244.865C202.432 229.162 200.617 212.854 195.914 197.756C187.114 169.596 166.131 146.688 160.026 117.537C159.971 117.235 159.834 116.987 159.641 116.795C161.099 113.467 164.124 110.469 166.296 108.077L166.269 108.104ZM204.825 298.133C204.825 298.133 204.77 298.353 204.77 298.463C203.945 297.336 203.23 296.071 202.487 294.943C202.295 294.641 202.047 294.366 201.827 294.091C201.387 293.293 200.809 292.578 200.094 291.946C200.947 292.166 201.772 292.358 202.652 292.441C203.037 292.798 203.56 292.963 204.055 292.963C204.055 294.916 204.33 296.676 204.825 298.106V298.133ZM17.1606 138.575C18.0406 137.09 18.5356 135.495 19.3606 133.845C20.5981 131.48 22.3032 129.417 24.2007 127.52C28.4358 123.23 33.9084 120.232 39.326 117.702C52.3613 111.624 67.0191 108.764 81.1819 107.032C93.3372 105.519 105.822 104.914 118.033 106.124C126.805 107.004 134.918 110.249 142.371 114.897C145.836 117.07 148.998 119.682 152.326 122.02C153.811 123.065 155.709 124.412 157.661 125.347C160.246 135.302 165.114 144.735 169.899 153.728C177.269 167.561 185.437 181.008 190.854 195.749C196.327 210.654 197.977 227.319 199.599 242.995C201.139 258.01 201.167 273.025 201.91 288.068C198.004 286.253 193.109 285.703 189.122 285.043C182.412 283.916 175.564 283.668 168.744 283.751C154.333 283.916 140.006 286.308 125.788 288.508C115.283 290.131 104.667 290.626 94.1622 292.221C86.6271 293.376 77.7994 295.301 71.9967 300.691C71.7492 300.306 71.3367 300.031 70.8692 299.948C70.8692 299.866 70.8417 299.811 70.8142 299.728C70.5392 298.628 70.2642 297.556 70.0167 296.456C69.4667 293.926 69.0817 291.368 68.6967 288.811C67.7616 282.788 66.7166 276.93 65.2866 270.963C60.8865 252.895 54.3964 235.35 49.4462 217.419C45.2387 202.184 41.7461 186.729 36.5485 171.796C32.3684 159.833 26.6483 147.32 17.1881 138.548L17.1606 138.575ZM60.529 322.636C60.3365 322.361 60.034 322.141 59.6765 322.086C57.9714 318.484 57.5864 313.946 57.0089 310.151C56.0464 303.964 55.4139 297.693 54.5614 291.478C51.9763 272.283 48.5937 252.757 44.3036 233.865C40.151 215.549 34.0184 197.454 23.6507 181.696C20.5156 176.938 12.9805 168.193 14.3005 162.061C15.483 156.615 19.1131 151.83 21.2306 146.688C28.2708 157.248 32.5884 169.541 36.1635 181.668C41.4161 199.489 45.0187 217.722 50.3538 235.542C55.3864 252.427 61.6565 269.12 64.1866 286.611C64.9016 291.588 65.2041 297.281 67.3216 301.901C67.8716 303.084 68.7792 303.689 69.6867 303.771C69.7967 304.431 70.5667 304.871 71.2542 304.294C77.9919 298.573 88.1396 297.253 96.5823 296.016C106.015 294.613 115.613 294.311 125.045 292.853C136.128 291.148 147.211 289.416 158.376 288.536C153.976 289.196 149.603 289.993 145.286 290.873C132.306 293.458 119.628 297.253 107.142 301.598C91.5496 307.044 74.4168 313.259 60.529 322.664V322.636ZM176.444 307.044C164.426 305.916 151.776 306.686 139.813 308.226C128.208 309.711 116.053 312.351 105.025 316.229C94.8222 319.831 85.3345 325.194 75.2143 329.044C75.2143 326.102 75.2143 322.746 74.5818 319.886C84.0145 315.651 93.3372 311.086 102.99 307.484C115.393 302.864 128.098 298.931 141.023 296.016C151.913 293.541 163.024 291.726 174.189 291.286C179.277 291.093 184.447 291.286 189.452 292.303C193.852 293.211 196.629 295.823 200.507 297.528C200.562 297.556 200.645 297.556 200.699 297.583C201.855 298.848 202.872 300.251 204.137 301.626C204.275 301.764 204.412 301.901 204.55 302.039C206.172 305.394 207.41 308.254 207.877 311.719C207.877 311.939 207.932 312.159 207.96 312.379C197.399 312.186 186.949 308.061 176.416 307.099L176.444 307.044ZM220.197 290.708C218.245 292.633 215.577 295.466 213.212 298.683C217.2 291.038 224.708 285.236 231.528 280.341C231.748 280.203 231.94 280.066 232.16 279.901C227.98 283.338 223.937 286.968 220.197 290.681V290.708ZM253.583 262.96C244.26 267.498 235.35 272.998 227.183 279.378C219.922 285.043 211.92 292.881 210.38 302.424C210.352 302.616 210.38 302.781 210.517 302.919C210.517 302.974 210.462 303.001 210.462 303.056C210.462 303.056 210.462 303.029 210.462 303.001C209.692 302.451 208.895 301.984 208.097 301.516C208.345 301.571 208.62 301.626 208.895 301.598C209.17 301.598 209.362 301.351 209.307 301.076C208.84 299.316 207.575 297.886 207.08 296.043C206.502 293.898 206.64 291.588 207.025 289.361C216.705 268.708 240.493 257.405 261.173 251.327C283.256 244.837 306.219 243.27 328.577 248.852C330.2 249.265 331.437 247.422 330.915 246.157C331.492 245.965 332.015 245.525 332.29 244.947C332.565 245.387 332.84 245.8 333.115 246.212C332.95 246.542 332.895 246.955 333.06 247.395C333.445 248.412 333.747 249.237 333.912 250.172C307.072 254.71 278.746 250.722 253.611 262.933L253.583 262.96ZM328.77 255.48C331.355 255.013 333.967 254.462 336.525 253.72C337.432 253.472 337.845 252.73 337.9 251.905C338.752 253.692 339.55 255.508 340.292 257.35C336.497 256.443 332.647 255.865 328.77 255.453V255.48Z" fill="#003555"/>
<path d="M119.05 138.08C108.545 135.55 96.1145 137.668 85.8843 140.473C76.2591 143.113 64.5988 148.09 59.5662 157.276C59.1812 157.963 59.3737 158.953 60.1162 159.338C60.3087 159.448 60.5012 159.531 60.6937 159.641C61.1062 159.861 61.7388 159.861 62.0688 159.476C62.4538 159.173 62.8663 158.871 63.2788 158.568C63.6913 158.376 63.6088 157.881 63.3338 157.606C63.3888 157.551 63.4163 157.496 63.4713 157.413C64.2413 156.533 65.0938 155.736 65.9464 154.938C67.9264 153.068 70.2089 151.583 72.5465 150.208C77.4141 147.32 82.8592 145.45 88.3043 143.993C97.1595 141.628 105.767 141.38 114.677 141.738C114.485 142.508 115.145 143.36 116.052 143.14C117.372 142.81 118.39 142.398 119.517 141.655C120.893 140.775 120.783 138.465 119.05 138.053V138.08Z" fill="#003555"/>
<path d="M121.8 173.006C120.948 169.843 116.19 169.403 113.44 169.128C108.05 168.606 102.687 169.348 97.4346 170.558C87.6443 172.813 76.0391 177.489 69.714 185.629C68.9164 186.646 69.989 188.571 71.254 187.636C72.1065 186.976 72.9865 186.564 73.8391 185.931C74.0591 185.766 74.1691 185.574 74.1966 185.354C80.6867 180.679 88.1119 177.406 95.7845 175.179C100.35 173.858 105.08 173.116 109.837 173.061C111.982 173.061 114.127 173.336 116.217 173.831C117.922 174.243 119.215 175.179 120.948 174.546C121.58 174.326 121.993 173.721 121.8 173.033V173.006Z" fill="#003555"/>
<path d="M141.243 208.097C139.29 203.999 131.893 203.284 127.878 202.817C121.608 202.074 115.09 203.174 108.985 204.632C96.912 207.547 83.1617 213.322 74.004 221.902C73.234 222.617 74.004 224.047 75.0491 223.69C76.5341 223.167 77.9091 222.645 79.3117 221.93C79.5592 221.792 79.6692 221.6 79.6967 221.407C88.6894 216.897 97.3521 212.195 107.17 209.334C113.027 207.629 119.078 206.667 125.183 206.777C128.098 206.832 130.958 207.354 133.735 208.179C135.99 208.839 137.695 210.325 140.06 210.132C141.133 210.049 141.683 209.059 141.215 208.124L141.243 208.097Z" fill="#003555"/>
<path d="M152.573 238.265C148.008 237.99 143.388 239.612 138.933 240.41C133.9 241.318 128.813 241.978 123.78 242.83C115.145 244.288 106.07 246.213 99.1397 251.905C98.4522 252.455 99.1947 253.748 100.02 253.418C108.655 249.98 117.345 247.863 126.53 246.46C131.04 245.773 135.55 245.14 140.033 244.398C144.488 243.655 149.438 243.078 153.123 240.273C153.948 239.64 153.701 238.375 152.601 238.292L152.573 238.265Z" fill="#003555"/>
<path d="M241.51 87.9469C228.53 89.5694 216.127 96.2246 205.649 103.842C204.082 104.97 191.046 114.402 196.794 116.575C197.839 116.96 198.389 115.392 197.537 114.842C197.289 114.677 211.067 104.53 212.469 103.65C220.692 98.5896 229.382 94.8495 238.705 92.622C238.485 93.282 238.265 93.942 238.1 94.6295C237.907 95.2896 238.788 95.8396 239.255 95.3171C240.465 93.997 241.648 92.622 242.968 91.3845C244.123 90.2844 243.325 87.7544 241.565 87.9744L241.51 87.9469Z" fill="#003555"/>
<path d="M243.49 130.765C237.77 131.782 232.435 133.57 227.155 136.045C223.387 137.805 219.812 139.95 216.21 142.013C214.339 143.085 212.304 144.02 210.599 145.313C210.187 145.643 209.774 145.973 209.389 146.303C209.004 146.468 208.812 146.633 208.702 146.825C208.234 146.523 207.492 146.633 207.217 147.32C206.969 147.76 206.832 148.228 206.749 148.695C206.667 149.19 206.804 149.823 207.299 150.043C209.857 151.253 214.367 147.128 216.512 146.11C223.552 142.7 230.07 138.273 237.687 136.183C241.538 135.138 245.525 134.423 249.513 133.928C251.438 133.708 258.973 132.58 260.073 134.863C260.458 135.633 261.75 135.44 261.915 134.615C263.676 126.447 247.34 129.995 243.463 130.682L243.49 130.765Z" fill="#003555"/>
<path d="M255.123 160.493C250.311 161.841 245.36 163.216 240.768 165.196C237.743 166.516 234.855 168.221 231.94 169.733C230.153 170.668 225.34 172.621 225.037 174.271C225.257 173.116 223.69 172.703 223.305 173.804C222.92 174.904 222.92 177.241 224.9 176.609C229.988 175.014 234.965 172.291 239.778 169.981C244.783 167.588 250.036 166.351 255.288 164.783C258.781 163.738 264.693 161.566 265.821 166.626C265.958 167.231 266.976 167.423 267.251 166.818C270.908 158.238 260.458 159.091 255.178 160.548L255.123 160.493Z" fill="#003555"/>
<path d="M269.341 191.651C264.803 184.446 254.381 188.791 248.413 191.596C245.69 192.861 243.133 194.346 240.575 195.831C239.118 196.684 237.633 197.509 236.175 198.389C235.653 198.691 235.158 198.966 234.635 199.269C234.415 199.406 234.223 199.544 234.003 199.681C233.92 199.709 233.838 199.736 233.783 199.791C233.15 199.516 232.353 199.599 231.885 200.341C231.693 200.616 231.555 200.891 231.5 201.221C231.39 201.964 231.583 202.514 232.215 202.954C234.773 204.769 241.428 199.901 243.463 198.774C246.295 197.206 249.128 195.749 252.071 194.401C254.848 193.109 257.736 192.229 260.788 191.954C263.373 191.706 266.041 192.724 268.626 192.944C269.258 192.999 269.671 192.201 269.368 191.679L269.341 191.651Z" fill="#003555"/>
<path d="M273.163 207.437C267.636 205.732 260.403 209.802 255.425 212.084C248.303 215.357 241.62 219.455 234.525 222.755C232.957 223.47 234.085 226.027 235.68 225.505C241.62 223.58 247.12 220.665 252.675 217.887C256.195 216.127 259.771 214.532 263.483 213.157C266.756 211.947 270.551 211.809 273.493 209.967C274.511 209.334 274.318 207.794 273.163 207.464V207.437Z" fill="#003555"/>
<path d="M243.903 350.413C243.133 351.21 240.575 353.025 241.785 354.235C243.023 355.473 244.838 352.915 245.608 352.118C246.708 350.99 245.003 349.285 243.875 350.385L243.903 350.413Z" fill="#00B2B2"/>
<path d="M305.421 322.28C305.201 321.62 304.294 321.62 304.101 322.28C304.019 322.555 303.936 322.802 303.854 323.077C303.661 323.077 303.469 323.022 303.304 322.995C301.159 322.637 301.159 325.937 303.304 325.552C305.339 325.195 306.081 324.287 305.449 322.252L305.421 322.28Z" fill="#00B2B2"/>
<path d="M330.42 330.97C329.567 330.97 329.567 332.29 330.42 332.29C331.272 332.29 331.272 330.97 330.42 330.97Z" fill="#00B2B2"/>
<path d="M349.945 90.4769C349.835 89.7894 349.395 89.2944 349.257 88.6619C349.092 87.8644 348.707 87.1769 348.102 86.6544C347.36 86.0493 346.535 86.0493 345.792 86.6544C345.325 87.0394 344.885 87.5894 344.747 88.1944C344.555 89.0194 344.115 89.6244 343.95 90.4769C343.757 91.522 343.867 92.7595 344.747 93.502C344.912 93.6395 345.077 93.777 345.242 93.9145C345.902 95.5095 347.992 95.5095 348.652 93.9145C348.817 93.777 348.982 93.6395 349.147 93.502C350.027 92.7595 350.137 91.522 349.945 90.4769Z" fill="#00B2B2"/>
<path d="M310.261 0.220102C309.684 0.1376 309.051 -0.0274034 308.474 0.0275978C306.384 0.220102 306.384 3.08016 308.474 3.27267C309.051 3.32767 309.684 3.13516 310.261 3.08016C312.076 2.86016 312.076 0.467607 310.261 0.247602V0.220102Z" fill="#00B2B2"/>
<path d="M97.0769 21.8082C97.0769 21.8082 97.0769 21.5607 97.0769 21.4232C97.0769 20.5707 96.4169 20.1582 95.7569 20.1582C95.0969 20.1582 94.4369 20.5707 94.4369 21.4232C94.4369 21.5607 94.4369 21.6707 94.4369 21.8082C94.4369 21.8357 94.4369 21.8632 94.4369 21.8907C94.4369 22.6057 94.4369 23.2932 94.4919 24.0083C94.4919 24.8333 95.1244 25.2458 95.7569 25.2183C96.3894 25.2183 97.0219 24.8333 97.0219 24.0083C97.0219 23.2932 97.0494 22.6057 97.0769 21.8907C97.0769 21.8632 97.0769 21.8357 97.0769 21.8082Z" fill="#00B2B2"/>
<path d="M119.6 51.8665C118.198 51.8665 118.198 54.0666 119.6 54.0666C121.003 54.0666 121.003 51.8665 119.6 51.8665Z" fill="#00B2B2"/>
<path d="M4.64758 81.3195C4.64758 81.3195 4.56508 81.2645 4.51008 81.237C4.51008 80.9619 4.51008 80.6869 4.51008 80.4669C4.59258 77.5519 -0.0825211 77.5519 -1.93486e-05 80.4669C0.0274812 81.8145 0.219985 83.6845 1.89752 83.987C2.36503 84.0695 2.91504 84.0695 3.35505 83.8495C3.82256 83.7395 4.23507 83.5745 4.64758 83.272C5.3626 82.7495 5.3626 81.842 4.64758 81.3195Z" fill="#00B2B2"/>
<path d="M31.8456 299.564C31.5156 299.454 31.1306 299.344 30.7731 299.234C30.7731 299.124 30.7731 298.987 30.7731 298.959C30.7731 298.547 30.8556 298.134 30.8831 297.722C31.1856 295.109 26.538 295.109 26.813 297.722C26.9505 299.042 26.978 300.884 28.3255 301.599C28.6831 301.792 29.1231 301.874 29.5081 301.792C29.5081 301.792 29.5081 301.792 29.5356 301.792C29.7281 301.792 29.8931 301.792 30.0856 301.792C30.6906 301.792 31.2406 301.572 31.8181 301.352C32.6981 301.022 32.6981 299.867 31.8181 299.537L31.8456 299.564Z" fill="#00B2B2"/>
<path d="M13.9977 216.292C11.8802 214.12 8.49759 217.502 10.6701 219.62C11.8252 220.747 13.0902 222.507 14.8502 222.535C15.9777 222.535 16.9403 221.572 16.9128 220.472C16.9128 218.712 15.1252 217.447 13.9977 216.292Z" fill="#00B2B2"/>
</g>
<defs>
<clipPath id="clip0_122_2080">
<rect width="350" height="354.593" fill="white"/>
</clipPath>
</defs>
</svg>
