<svg width="350" height="332" viewBox="0 0 350 332" fill="none" xmlns="http://www.w3.org/2000/svg">
<g clip-path="url(#clip0_122_2103)">
<path d="M348.091 200.94C328.216 177.14 313.115 150.298 296.317 124.376C288.466 112.282 279.555 101.177 270.077 90.356C265.338 84.9099 260.705 79.3223 255.825 73.9823C251.758 69.5265 246.949 64.9291 245.676 58.8111C245.322 57.1843 243.801 56.6892 242.528 57.0429C236.799 52.7638 226.296 52.8345 219.966 52.6223C210.064 52.2687 200.127 51.9504 190.189 51.6321C189.305 51.6321 188.668 52.3041 188.492 53.0821C179.191 58.5989 170.456 65.9547 161.686 72.2141C152.42 78.8626 143.296 85.7233 134.667 93.1851C127.842 99.091 121.547 105.563 114.58 111.292C108.71 116.137 101.39 119.143 95.6959 123.987C95.4483 124.2 95.5191 124.589 95.7666 124.765C96.191 124.978 96.6154 125.084 97.0397 125.225C96.5093 125.543 96.1556 126.109 96.4032 126.887C98.2067 133.005 101.036 138.946 104.289 144.711C103.511 144.251 102.45 144.145 101.708 144.923C92.1241 154.719 78.8979 163.772 89.8961 177.529C104.608 195.954 117.834 215.545 132.333 234.182C145.029 250.521 154.683 267.743 164.904 285.637C173.462 300.632 183.753 317.784 199.49 326.165C199.667 326.271 199.844 326.271 200.02 326.306C199.455 326.801 198.924 327.261 198.394 327.756C196.59 329.418 198.783 332.106 200.869 331.116C211.655 325.953 221.239 317.324 230.787 310.145C242.74 301.162 254.694 292.18 267.389 284.223C279.413 276.69 293.594 273.189 306.29 266.965C318.703 260.882 328.817 250.804 338.471 241.149C339.992 239.629 339.249 237.613 337.87 236.729C337.764 236.552 337.693 236.34 337.552 236.163C333.733 231.707 329.913 227.11 325.846 222.866C323.336 220.214 319.198 224.174 321.744 226.827C325.493 230.681 328.64 235.279 332.849 238.674C323.265 248.187 313.434 257.134 301.162 263.146C288.431 269.37 274.674 272.906 262.58 280.51C251.617 287.37 241.22 295.186 230.893 302.966C221.946 309.685 212.327 316.051 203.628 323.265C203.521 322.593 203.132 321.956 202.354 321.461C173.356 302.86 165.505 266.788 144.958 241.043C130.636 223.113 116.879 204.795 103.547 186.087C101.142 182.727 98.8079 179.403 96.1556 176.22C93.963 173.568 90.9924 170.88 90.7803 167.238C90.3912 160.13 101.177 153.021 105.067 147.611C105.315 147.292 105.386 146.939 105.421 146.621C110.125 154.613 115.677 162.287 120.663 169.572C129.999 183.116 140.149 196.166 150.192 209.215C161.19 223.502 172.012 237.931 182.515 252.643C191.003 264.525 196.838 280.156 207.907 289.881C208.048 290.023 208.225 290.058 208.366 290.164C208.755 291.26 209.816 292.109 211.125 291.614C223.325 287.264 233.758 278.671 243.943 270.891C256.674 261.13 269.37 252.041 283.374 244.191C296.777 236.693 310.251 229.267 323.654 221.734C328.676 218.905 342.255 212.363 344.271 205.078C346.994 207.023 350.389 203.805 348.091 201.046V200.94ZM213.919 58.1745C219.046 58.2099 224.174 58.3513 229.302 58.9525C232.945 59.3769 236.233 60.8622 239.664 61.7817C235.668 62.4536 231.601 66.4851 228.63 68.6423C223.184 72.6739 217.985 77.0237 212.964 81.5503C208.083 72.6739 201.046 65.3181 195.317 56.9721C201.329 58.4221 207.801 58.1038 213.919 58.1745ZM332.919 209.003C328.287 212.681 322.947 215.545 317.783 218.41C304.628 225.695 291.472 233.051 278.352 240.407C254.8 253.597 235.455 273.083 211.726 285.814C202.107 274.957 195.918 261.66 187.572 249.849C177.882 236.198 167.733 222.866 157.654 209.534C147.469 196.06 136.825 182.904 126.852 169.289C122.007 162.676 117.445 155.886 113.095 148.99C108.321 141.387 104.572 133.111 99.5506 125.72C99.5152 125.65 99.4445 125.614 99.3738 125.543C104.219 125.543 109.7 121.477 113.06 119.142C120.203 114.191 126.71 108.286 133.041 102.344C142.836 93.1498 153.552 85.0514 164.479 77.2005C172.861 71.1532 182.515 65.6364 190.366 58.7404C196.908 68.3948 205.148 76.5993 209.746 87.5269C210.488 89.2951 212.928 89.3304 214.166 88.1988C219.506 83.3539 224.952 78.6858 230.646 74.3006C233.723 71.9312 239.593 69.5618 242.245 66.0254C245.499 73.0275 253.102 79.3577 257.417 84.4502C268.698 97.6764 280.262 110.408 289.881 124.942C306.75 150.404 321.072 177.883 340.876 201.223C337.941 203.309 335.784 206.74 332.919 209.038V209.003Z" fill="#F2F8FC"/>
<path d="M213.211 106.058C193.266 126.887 168.971 142.341 146.267 159.847C145.772 160.236 146.373 160.978 146.903 160.696C172.507 148.177 197.085 130.318 217.137 110.125C219.718 107.543 215.722 103.405 213.211 106.058Z" fill="#F2F8FC"/>
<path d="M245.322 115.713C241.785 115.359 238.037 119.178 235.208 120.84C226.084 126.251 217.455 133.076 208.932 139.336C201.293 144.959 194.15 150.688 187.395 157.301C181.065 163.525 174.841 169.325 167.273 174.028C165.151 175.372 166.283 179.05 168.9 178.307C175.23 176.539 180.393 171.517 185.132 167.203C191.568 161.297 197.545 154.967 204.512 149.627C213.317 142.872 222.406 136.507 231.53 130.212C234.43 128.196 237.294 126.251 240.229 124.341C241.326 123.634 242.422 122.927 243.518 122.255C244.155 121.866 244.791 121.512 245.428 121.159C245.711 121.017 245.923 120.876 246.029 120.734C246.772 120.487 247.479 119.921 247.656 119.108C247.656 119.072 247.656 119.001 247.656 118.966C248.08 117.269 246.949 115.819 245.251 115.642L245.322 115.713Z" fill="#F2F8FC"/>
<path d="M255.189 142.624C243.837 151.536 231.955 159.67 219.719 167.308C207.2 175.124 193.938 181.772 181.596 189.871C178.625 191.816 181.985 195.069 183.93 193.796C210.595 181.878 236.198 164.656 259.15 146.691C261.979 144.463 257.912 140.043 255.189 142.589V142.624Z" fill="#F2F8FC"/>
<path d="M267.849 185.309C262.332 187.254 257.417 191.533 252.395 194.539C245.534 198.606 238.461 202.319 231.389 206.033C217.879 213.141 202.956 219.683 191.25 229.62C189.199 231.353 191.816 234.218 193.832 233.122C193.832 233.122 193.832 233.122 193.832 233.157C207.376 226.013 220.496 218.056 234.076 210.984C241.149 207.27 248.187 203.522 255.083 199.525C260.246 196.52 266.611 193.514 270.254 188.633C271.386 187.148 269.582 184.673 267.814 185.309H267.849Z" fill="#F2F8FC"/>
<path d="M271.385 200.304C270.572 199.95 269.405 199.95 268.945 200.905C268.238 202.355 268.344 203.876 267.92 205.396C267.248 207.872 264.489 209.852 262.615 211.373C256.709 216.147 249.601 219.577 243.059 223.361C236.693 227.004 217.809 236.34 221.027 246.419C221.31 247.303 222.618 247.692 223.149 246.737C229.797 234.501 244.367 228.984 256.002 222.336C261.342 219.295 267.071 215.935 270.996 211.125C273.154 208.473 275.877 202.249 271.385 200.269V200.304Z" fill="#F2F8FC"/>
<path d="M5.16323 176.821C4.45594 174.381 0.95488 174.381 0.247595 176.821C4.55966e-05 177.705 0.0354098 178.731 4.55836e-05 179.65C-0.141411 183.116 5.51687 183.116 5.37541 179.65C5.34005 178.731 5.37541 177.705 5.12786 176.821H5.16323Z" fill="#00B2B2"/>
<path d="M66.8383 38.9004C65.5652 37.2382 64.1153 36.4249 62.2763 35.859C60.6496 34.6566 58.5631 34.303 56.512 34.0201C52.9755 33.5604 50.4647 35.8237 48.6257 38.476C47.8477 39.6076 47.8477 41.4819 48.6257 42.6136C50.6769 45.6196 52.8341 47.0341 56.512 47.0695C58.3863 47.0695 60.6496 46.4329 62.2763 45.2306C64.1153 44.6647 65.5652 43.8867 66.8383 42.1892C67.4749 41.3405 67.4749 39.6784 66.8383 38.8296V38.9004Z" fill="#00B2B2"/>
<path d="M347.772 96.5797C347.383 96.4028 347.56 96.9333 347.241 96.3321C347.206 96.226 347.135 96.1553 347.1 96.0492C346.463 94.8114 344.448 94.8114 343.811 96.0492C343.776 96.1553 343.705 96.226 343.669 96.3321C343.351 96.9333 343.528 96.4028 343.139 96.5797C340.345 97.7467 340.31 101.92 342.22 103.794C343.988 105.562 346.958 105.562 348.727 103.794C350.636 101.884 350.601 97.7467 347.807 96.5797H347.772Z" fill="#00B2B2"/>
<path d="M112.281 294.797C108.427 294.797 104.643 298.934 106.128 302.86C106.694 304.31 107.189 305.795 108.108 306.997C108.603 308.518 109.346 309.827 110.761 310.817C111.574 311.383 112.989 311.383 113.802 310.817C115.252 309.791 115.959 308.518 116.454 306.997C117.374 305.795 117.869 304.31 118.435 302.86C119.92 298.899 116.136 294.797 112.281 294.797Z" fill="#00B2B2"/>
<path d="M312.231 9.5483C306.785 12.9079 299.924 11.9531 293.806 10.0434C287.688 8.16909 283.02 4.1022 279.554 -0.0354156C282.666 4.56194 283.869 10.4324 282.808 15.8785C281.747 21.3246 278.423 26.3109 273.825 29.423C279.837 28.0438 285.955 29.2462 291.472 31.9692C296.989 34.7276 301.515 39.4311 304.062 45.054C300.136 32.8887 303.673 18.9906 312.231 9.51293V9.5483Z" fill="#F2F8FC"/>
</g>
<defs>
<clipPath id="clip0_122_2103">
<rect width="350" height="331.292" fill="white"/>
</clipPath>
</defs>
</svg>
