<svg width="350" height="332" viewBox="0 0 350 332" fill="none" xmlns="http://www.w3.org/2000/svg">
<g clip-path="url(#clip0_122_2103)">
<path d="M348.091 201.136C328.216 177.312 313.115 150.445 296.317 124.498C288.466 112.391 279.555 101.276 270.077 90.444C265.338 84.9926 260.705 79.3996 255.825 74.0544C251.758 69.5942 246.949 64.9923 245.676 58.8683C245.322 57.24 243.801 56.7444 242.528 57.0984C236.799 52.8152 226.296 52.886 219.966 52.6736C210.064 52.3196 200.127 52.001 190.189 51.6824C189.305 51.6824 188.668 52.355 188.492 53.1338C179.191 58.656 170.456 66.0189 161.686 72.2845C152.42 78.9394 143.296 85.8068 134.667 93.2759C127.842 99.1875 121.547 105.665 114.58 111.4C108.71 116.25 101.39 119.259 95.6959 124.108C95.4483 124.321 95.5191 124.71 95.7666 124.887C96.191 125.099 96.6154 125.205 97.0397 125.347C96.5093 125.666 96.1556 126.232 96.4032 127.011C98.2067 133.135 101.036 139.082 104.289 144.852C103.511 144.392 102.45 144.285 101.708 145.064C92.1241 154.87 78.8979 163.932 89.8961 177.702C104.608 196.144 117.834 215.755 132.333 234.41C145.029 250.765 154.683 268.004 164.904 285.916C173.462 300.925 183.753 318.093 199.49 326.482C199.667 326.589 199.844 326.589 200.02 326.624C199.455 327.12 198.924 327.58 198.394 328.075C196.59 329.739 198.783 332.429 200.869 331.438C211.655 326.27 221.239 317.633 230.787 310.447C242.74 301.456 254.694 292.464 267.389 284.5C279.413 276.96 293.594 273.455 306.29 267.225C318.703 261.136 328.817 251.048 338.471 241.384C339.992 239.862 339.249 237.844 337.87 236.959C337.764 236.782 337.693 236.57 337.552 236.393C333.733 231.933 329.913 227.331 325.846 223.083C323.336 220.428 319.198 224.393 321.744 227.048C325.493 230.906 328.64 235.508 332.849 238.906C323.265 248.428 313.434 257.384 301.162 263.402C288.431 269.632 274.674 273.172 262.58 280.783C251.617 287.65 241.22 295.473 230.893 303.261C221.946 309.987 212.327 316.358 203.628 323.58C203.521 322.907 203.132 322.27 202.354 321.774C173.356 303.155 165.505 267.048 144.958 241.278C130.636 223.331 116.879 204.994 103.547 186.268C101.142 182.905 98.8079 179.578 96.1556 176.392C93.963 173.737 90.9924 171.047 90.7803 167.401C90.3912 160.286 101.177 153.17 105.067 147.754C105.315 147.436 105.386 147.082 105.421 146.763C110.125 154.763 115.677 162.445 120.663 169.737C129.999 183.295 140.149 196.357 150.192 209.419C161.19 223.72 172.012 238.163 182.515 252.889C191.003 264.783 196.838 280.429 207.907 290.163C208.048 290.305 208.225 290.34 208.366 290.447C208.755 291.544 209.816 292.394 211.125 291.898C223.325 287.544 233.758 278.942 243.943 271.154C256.674 261.384 269.37 252.287 283.374 244.428C296.777 236.924 310.251 229.49 323.654 221.95C328.676 219.118 342.255 212.569 344.271 205.277C346.994 207.224 350.389 204.003 348.091 201.242V201.136ZM213.919 58.2312C219.046 58.2666 224.174 58.4082 229.302 59.0099C232.945 59.4347 236.233 60.9215 239.664 61.8418C235.668 62.5144 231.601 66.5499 228.63 68.7092C223.184 72.7446 217.985 77.0987 212.964 81.6297C208.083 72.7446 201.046 65.3817 195.317 57.0276C201.329 58.479 207.801 58.1604 213.919 58.2312ZM332.919 209.207C328.287 212.888 322.947 215.755 317.783 218.623C304.628 225.915 291.472 233.278 278.352 240.641C254.8 253.844 235.455 273.349 211.726 286.093C202.107 275.225 195.918 261.915 187.572 250.092C177.882 236.428 167.733 223.083 157.654 209.738C147.469 196.251 136.825 183.082 126.852 169.454C122.007 162.834 117.445 156.038 113.095 149.135C108.321 141.524 104.572 133.241 99.5506 125.843C99.5152 125.772 99.4445 125.736 99.3738 125.666C104.219 125.666 109.7 121.595 113.06 119.259C120.203 114.303 126.71 108.391 133.041 102.444C142.836 93.2405 153.552 85.1342 164.479 77.2757C172.861 71.2225 182.515 65.7003 190.366 58.7976C196.908 68.4614 205.148 76.6739 209.746 87.6121C210.488 89.382 212.928 89.4174 214.166 88.2847C219.506 83.435 224.952 78.7624 230.646 74.373C233.723 72.0013 239.593 69.6296 242.245 66.0897C245.499 73.0986 253.102 79.435 257.417 84.5324C268.698 97.7715 280.262 110.515 289.881 125.064C306.75 150.551 321.072 178.056 340.876 201.419C337.941 203.507 335.784 206.941 332.919 209.242V209.207Z" fill="#F2F8FC"/>
<path d="M213.211 106.161C193.266 127.011 168.971 142.48 146.267 160.002C145.772 160.392 146.373 161.135 146.903 160.852C172.507 148.321 197.085 130.445 217.137 110.232C219.718 107.648 215.722 103.506 213.211 106.161Z" fill="#F2F8FC"/>
<path d="M245.322 115.825C241.785 115.471 238.037 119.294 235.208 120.958C226.084 126.374 217.455 133.206 208.932 139.472C201.293 145.1 194.15 150.835 187.395 157.454C181.065 163.684 174.841 169.49 167.273 174.198C165.151 175.543 166.283 179.224 168.9 178.481C175.23 176.711 180.393 171.684 185.132 167.366C191.568 161.454 197.545 155.118 204.512 149.773C213.317 143.011 222.406 136.64 231.53 130.339C234.43 128.321 237.294 126.374 240.229 124.463C241.326 123.755 242.422 123.047 243.518 122.374C244.155 121.985 244.791 121.631 245.428 121.277C245.711 121.135 245.923 120.993 246.029 120.852C246.772 120.604 247.479 120.038 247.656 119.224C247.656 119.188 247.656 119.117 247.656 119.082C248.08 117.383 246.949 115.931 245.251 115.754L245.322 115.825Z" fill="#F2F8FC"/>
<path d="M255.189 142.763C243.837 151.683 231.955 159.825 219.719 167.471C207.2 175.294 193.938 181.949 181.596 190.056C178.625 192.003 181.985 195.259 183.93 193.985C210.595 182.056 236.198 164.816 259.15 146.834C261.979 144.604 257.912 140.179 255.189 142.728V142.763Z" fill="#F2F8FC"/>
<path d="M267.849 185.489C262.332 187.436 257.417 191.72 252.395 194.729C245.534 198.799 238.461 202.516 231.389 206.233C217.879 213.348 202.956 219.897 191.25 229.844C189.199 231.579 191.816 234.446 193.832 233.349C193.832 233.349 193.832 233.349 193.832 233.384C207.376 226.233 220.496 218.269 234.076 211.189C241.149 207.472 248.187 203.72 255.083 199.72C260.246 196.711 266.611 193.702 270.254 188.817C271.386 187.33 269.582 184.852 267.814 185.489H267.849Z" fill="#F2F8FC"/>
<path d="M271.385 200.499C270.572 200.145 269.405 200.145 268.945 201.101C268.238 202.552 268.344 204.074 267.92 205.596C267.248 208.074 264.489 210.057 262.615 211.579C256.709 216.358 249.601 219.791 243.059 223.579C236.693 227.225 217.809 236.57 221.027 246.659C221.31 247.544 222.618 247.933 223.149 246.977C229.797 234.729 244.367 229.207 256.002 222.552C261.342 219.508 267.071 216.145 270.996 211.331C273.154 208.676 275.877 202.446 271.385 200.464V200.499Z" fill="#F2F8FC"/>
<path d="M5.16323 176.993C4.45594 174.551 0.95488 174.551 0.247595 176.993C4.55966e-05 177.878 0.0354098 178.905 4.55836e-05 179.825C-0.141411 183.294 5.51687 183.294 5.37541 179.825C5.34005 178.905 5.37541 177.878 5.12786 176.993H5.16323Z" fill="#00B2B2"/>
<path d="M66.8383 38.9382C65.5652 37.2745 64.1153 36.4603 62.2763 35.8939C60.6496 34.6904 58.5631 34.3364 56.512 34.0532C52.9755 33.593 50.4647 35.8585 48.6257 38.5134C47.8477 39.6462 47.8477 41.5223 48.6257 42.6551C50.6769 45.664 52.8341 47.0799 56.512 47.1153C58.3863 47.1153 60.6496 46.4782 62.2763 45.2746C64.1153 44.7082 65.5652 43.9294 66.8383 42.2303C67.4749 41.3807 67.4749 39.717 66.8383 38.8674V38.9382Z" fill="#00B2B2"/>
<path d="M347.772 96.6737C347.383 96.4967 347.56 97.0277 347.241 96.4259C347.206 96.3197 347.135 96.2489 347.1 96.1427C346.463 94.9038 344.448 94.9038 343.811 96.1427C343.776 96.2489 343.705 96.3197 343.669 96.4259C343.351 97.0277 343.528 96.4967 343.139 96.6737C340.345 97.8419 340.31 102.019 342.22 103.895C343.988 105.665 346.958 105.665 348.727 103.895C350.636 101.984 350.601 97.8419 347.807 96.6737H347.772Z" fill="#00B2B2"/>
<path d="M112.281 295.084C108.427 295.084 104.643 299.225 106.128 303.155C106.694 304.606 107.189 306.093 108.108 307.296C108.603 308.818 109.346 310.128 110.761 311.119C111.574 311.686 112.989 311.686 113.802 311.119C115.252 310.093 115.959 308.818 116.454 307.296C117.374 306.093 117.869 304.606 118.435 303.155C119.92 299.19 116.136 295.084 112.281 295.084Z" fill="#00B2B2"/>
<path d="M312.231 9.55763C306.785 12.9205 299.924 11.9647 293.806 10.0532C287.688 8.17708 283.02 4.10623 279.554 -0.0354156C282.666 4.56641 283.869 10.4426 282.808 15.894C281.747 21.3454 278.423 26.3366 273.825 29.4517C279.837 28.0711 285.955 29.2747 291.472 32.0004C296.989 34.7615 301.515 39.4695 304.062 45.0979C300.136 32.9208 303.673 19.0091 312.231 9.52223V9.55763Z" fill="#F2F8FC"/>
</g>
<defs>
<clipPath id="clip0_122_2103">
<rect width="350" height="331.615" fill="white"/>
</clipPath>
</defs>
</svg>
