<svg width="24" height="24" viewBox="0 0 24 24" fill="none" xmlns="http://www.w3.org/2000/svg">
<path d="M12 12C14.7614 12 17 9.76142 17 7C17 4.23858 14.7614 2 12 2C9.23858 2 7 4.23858 7 7C7 9.76142 9.23858 12 12 12Z" stroke="currentColor" stroke-width="2" stroke-linecap="round" stroke-linejoin="round"/>
<path d="M20.59 22C20.59 18.13 16.74 15 12 15C7.26 15 3.41 18.13 3.41 22" stroke="currentColor" stroke-width="2" stroke-linecap="round" stroke-linejoin="round"/>
<circle cx="12" cy="7" r="3" fill="currentColor" opacity="0.1"/>
<circle cx="10.5" cy="6" r="0.5" fill="currentColor" opacity="0.4"/>
<circle cx="13.5" cy="6" r="0.5" fill="currentColor" opacity="0.4"/>
<path d="M10.5 8.5C11 9 11.5 9.2 12 9.2C12.5 9.2 13 9 13.5 8.5" stroke="currentColor" stroke-width="1" stroke-linecap="round" opacity="0.3"/>
<path d="M8 19C9 17 10.5 16 12 16C13.5 16 15 17 16 19" stroke="currentColor" stroke-width="1.5" stroke-linecap="round" opacity="0.3"/>
</svg>