<svg width="224" height="180" viewBox="0 0 224 180" fill="none" xmlns="http://www.w3.org/2000/svg">
<path d="M92.3307 105.991C92.987 110.695 93.67 115.266 94.5271 120.075L92.3307 105.991Z" fill="#003555"/>
<path d="M201.612 11.4473L197.072 18.0717L187.309 11.4473L180.8 20.8275L191.179 27.9952L195.612 21.119L205.496 27.9952L211.938 18.4295L201.612 11.4473Z" fill="#003555"/>
<path d="M213.01 48.4771C211.828 44.8984 209.766 41.6661 207.01 39.0703C204.57 36.7958 201.335 35.5426 197.983 35.5726C194.937 35.6059 192.005 36.7202 189.72 38.7126C187.119 40.8865 185.034 43.6006 183.613 46.662C182.167 49.6178 181.394 52.8515 181.349 56.1349C181.273 57.757 181.55 59.3763 182.163 60.8828C182.775 62.3893 183.708 63.7478 184.898 64.866C187.256 67.03 190.755 68.112 195.398 68.112C198.6 68.1514 201.797 67.8494 204.934 67.211C204.867 68.006 204.76 68.7744 204.626 69.5031C204.56 69.9729 204.461 70.4377 204.331 70.8942C201.646 71.6463 198.882 72.0908 196.095 72.2191C192.398 72.5283 186.019 72.6784 176.957 72.6696C174.89 72.7443 172.822 72.5438 170.809 72.0734C170.176 71.8957 169.587 71.5864 169.084 71.166C168.58 70.7457 168.173 70.2239 167.89 69.6356C167.179 67.804 166.869 65.8444 166.979 63.8856V16.6266L166.068 16.0304L154.39 19.1307V63.9916C154.448 66.4705 154.21 68.9476 153.68 71.3712C151.131 72.3847 148.389 72.8368 145.645 72.6961C143.937 72.7636 142.229 72.5441 140.596 72.0469C139.434 71.5971 138.423 70.8353 137.676 69.8476C136.5 68.2228 135.457 66.5083 134.556 64.7203C132.547 60.8692 130.917 57.9942 129.667 56.0952C128.526 54.3146 127.059 52.76 125.341 51.5111C123.612 50.3201 121.542 49.7073 119.435 49.7622C116.208 49.7622 112.538 51.1533 108.453 53.9489C104.58 56.5947 101.057 59.7104 97.9669 63.2231L97.1633 64.1505C94.7723 66.9139 92.9523 70.1143 91.8063 73.5705C90.6299 77.4675 90.0698 81.521 90.1456 85.5873C90.2884 90.4943 90.7357 95.3879 91.4848 100.241C91.7527 102.162 91.9937 104.043 92.2616 105.898L94.458 119.982L94.8062 122.154L96.9892 136.119C101.007 135.509 104.851 132.237 108.668 130.819L101.221 83.9842C100.993 81.6818 100.93 79.3662 101.034 77.055L103.337 74.4052C110.801 82.3546 117.654 86.3293 123.895 86.3293C127.27 86.3293 130.123 84.6731 132.48 81.3477C133.779 82.6153 135.342 83.5874 137.06 84.1962C138.932 84.7933 140.892 85.0755 142.859 85.0309C146.826 85.1528 150.791 84.7383 154.644 83.7987C157.322 83.0914 159.715 81.5884 161.501 79.4928C162.895 81.5169 164.881 83.0704 167.193 83.9445C169.435 84.7641 171.807 85.1814 174.198 85.1766C181.644 85.1766 187.506 85.0662 191.782 84.8454C195.3 84.7081 198.797 84.2468 202.228 83.4675C204.615 82.9385 206.863 81.9232 208.831 80.4865C210.203 79.3287 211.292 77.8794 212.019 76.2468C213.049 74.0574 213.809 71.7531 214.282 69.3839C214.859 66.795 215.151 64.1519 215.152 61.5008C215.189 57.0708 214.465 52.6668 213.01 48.4771ZM122.395 74.657C120.312 74.523 118.308 73.8164 116.609 72.6166C114.095 70.9797 111.812 69.0193 109.819 66.7871C111.168 65.3442 112.688 64.0675 114.346 62.9846C115.478 62.2075 116.802 61.7495 118.176 61.6598C119.382 61.6598 120.6 62.4812 121.859 64.1505C123.632 66.7331 125.165 69.4691 126.44 72.3251C126.448 72.3997 126.481 72.4695 126.533 72.5239C126.571 72.5619 126.601 72.6077 126.619 72.658C126.638 72.7083 126.645 72.762 126.64 72.8153C126.114 73.4136 125.461 73.889 124.727 74.2074C123.993 74.5259 123.196 74.6794 122.395 74.657ZM197.943 57.3141C196.213 57.419 194.48 57.1664 192.854 56.5722C192.391 56.3781 191.997 56.0506 191.725 55.6324C191.453 55.2141 191.314 54.7244 191.327 54.2271C191.34 53.1071 191.639 52.0085 192.197 51.0341C192.744 49.9919 193.522 49.0859 194.474 48.3843C195.345 47.7068 196.42 47.3382 197.528 47.3377C198.5 47.378 199.447 47.6525 200.287 48.1374C201.127 48.6223 201.835 49.3028 202.349 50.1199C203.78 52.0881 204.738 54.354 205.148 56.7444C202.761 57.0867 200.354 57.277 197.943 57.3141Z" fill="#003555"/>
<path d="M16.6201 104.136L17.6245 104.361C18.2674 104.493 19.2049 104.732 20.4102 104.997C21.6155 105.262 23.0887 105.646 24.7092 106.083C26.3298 106.52 28.2047 107.024 30.2136 107.593C31.2181 107.898 32.2761 108.176 33.3341 108.534L34.9814 109.024L36.6555 109.581C37.7938 109.939 38.9456 110.349 40.1376 110.747L43.7268 112.072C46.1509 112.999 48.6419 113.966 51.1061 115.079C52.365 115.596 53.5704 116.219 54.8293 116.775C55.4453 117.053 56.048 117.384 56.6641 117.676L58.4989 118.617C60.9229 119.941 63.3068 121.266 65.5702 122.684L67.2576 123.757C67.8201 124.115 68.3558 124.512 68.9049 124.883C69.454 125.254 69.9897 125.612 70.512 125.996L72.0522 127.189L72.8156 127.758L73.1906 128.05L73.5522 128.355L74.9852 129.547C75.9628 130.302 76.82 131.137 77.6637 131.919L78.32 132.515L78.6414 132.806L78.936 133.111L80.1146 134.303L81.2663 135.456L82.311 136.635C83.7306 138.146 84.8556 139.656 85.9136 140.954C86.4359 141.617 86.8644 142.279 87.2528 142.875C87.6412 143.472 88.0832 144.002 88.418 144.505C89.0474 145.552 89.5832 146.347 89.9448 146.903L90.4939 147.751C90.4939 147.751 90.3867 147.42 90.1724 146.797C89.9582 146.174 89.6367 145.26 89.1948 144.147C88.9537 143.578 88.6591 142.968 88.351 142.279C88.2037 141.948 88.043 141.59 87.8555 141.233C87.668 140.875 87.6814 140.862 87.6011 140.663C87.551 140.573 87.5063 140.48 87.4671 140.385L87.3064 140.106L85.9671 137.708L85.5921 137.059C85.4716 136.847 85.3243 136.648 85.177 136.436L84.2931 135.112L83.369 133.787L82.3243 132.462L81.2128 131.137L80.9315 130.779L80.6369 130.448C80.4226 130.223 80.2217 129.984 80.0208 129.759C79.1905 128.845 78.3467 127.904 77.3423 127.016L75.9227 125.692L75.5611 125.347L75.1861 125.029L74.4227 124.367L72.8691 123.042L71.2352 121.783L69.5612 120.458L67.8067 119.266C66.655 118.458 65.4228 117.729 64.2041 116.987C63.5881 116.603 62.9586 116.272 62.3291 115.914L60.4408 114.88L58.5122 113.926C57.8694 113.608 57.173 113.277 56.5837 112.999C55.2444 112.416 53.9855 111.82 52.6731 111.316L50.8918 110.389L48.9365 109.687C47.5973 109.21 46.3383 108.812 45.0527 108.362C44.4232 108.163 43.7134 107.991 43.1509 107.805C42.5884 107.62 41.892 107.434 41.2625 107.289C40.017 106.971 38.8117 106.64 37.6063 106.388C35.2225 105.845 32.9457 105.447 30.8297 105.063C28.7136 104.679 26.8119 104.506 25.0575 104.361C23.303 104.215 21.8298 104.122 20.5977 104.069C19.3656 104.016 18.3745 104.069 17.7049 104.069C17.0353 104.069 16.6201 104.136 16.6201 104.136Z" fill="#F2F8FC"/>
<path d="M189.118 165.678L188.22 165.214C187.618 164.936 186.747 164.498 185.609 164.008C184.471 163.518 183.078 162.935 181.457 162.352C179.837 161.769 177.988 161.12 175.953 160.497C173.917 159.874 171.681 159.265 169.256 158.735C168.065 158.444 166.832 158.232 165.574 157.967C164.944 157.834 164.234 157.741 163.645 157.622C163.056 157.503 162.306 157.397 161.676 157.304C160.337 157.119 158.998 156.92 157.658 156.801L155.583 156.575L153.48 156.443C152.141 156.337 150.654 156.31 149.221 156.271C148.511 156.271 147.788 156.271 147.065 156.271H144.909L142.752 156.403C142.043 156.403 141.319 156.469 140.61 156.549C139.177 156.695 137.757 156.814 136.351 157.052L134.262 157.37C133.565 157.49 132.922 157.649 132.199 157.781C131.476 157.914 130.86 158.059 130.163 158.218L128.181 158.735L127.23 158.987L126.735 159.119L126.266 159.265L124.391 159.888C123.146 160.272 121.967 160.762 120.815 161.213L119.972 161.57L119.543 161.743L119.141 161.928L117.534 162.696L115.994 163.452L114.561 164.273L113.222 165.068C112.994 165.201 112.766 165.32 112.565 165.452L111.949 165.876L109.659 167.44L109.391 167.625L109.15 167.824L108.668 168.221L107.758 168.963C107.182 169.44 106.646 169.864 106.177 170.288C105.28 171.136 104.597 171.825 104.115 172.289L103.405 173.004L104.275 172.487C104.838 172.13 105.615 171.64 106.7 170.99C107.222 170.672 107.838 170.368 108.481 170.01C109.124 169.652 109.82 169.255 110.557 168.884C112.097 168.168 113.784 167.294 115.713 166.552L117.173 165.942L118.713 165.399L120.306 164.83L120.708 164.684L121.123 164.551L121.967 164.313C123.105 163.982 124.244 163.597 125.449 163.332L127.23 162.961L127.686 162.855L128.155 162.763L129.092 162.564L130.994 162.18C131.637 162.061 132.333 161.981 132.936 161.862C133.538 161.743 134.275 161.65 134.904 161.57L136.9 161.319C139.578 161.001 142.257 160.815 145.056 160.709H147.118C147.801 160.709 148.458 160.709 149.168 160.709C150.507 160.709 151.846 160.709 153.266 160.775C155.944 160.775 158.623 161.04 161.301 161.252C162.641 161.358 163.859 161.504 165.105 161.623C166.35 161.743 167.569 161.902 168.748 162.074L170.502 162.299L172.203 162.551C173.314 162.71 174.386 162.908 175.417 163.067C177.48 163.412 179.435 163.743 181.055 164.074C182.676 164.406 184.189 164.697 185.395 164.949C186.6 165.201 187.551 165.413 188.18 165.572L189.118 165.678Z" fill="#F2F8FC"/>
<path d="M184.819 156.127C183.104 155.358 181.337 154.709 179.569 154.073C177.801 153.437 176.006 152.867 174.212 152.311L171.533 151.529C170.622 151.291 169.712 151.039 168.855 150.814C167.02 150.363 165.185 149.953 163.337 149.568C162.399 149.396 161.475 149.197 160.551 149.038L157.752 148.575L154.94 148.191L152.114 147.873C151.163 147.767 150.226 147.714 149.275 147.634L147.855 147.528H146.422C144.534 147.409 142.619 147.422 140.717 147.422L137.864 147.502C137.382 147.502 136.9 147.502 136.431 147.581L134.998 147.687L133.565 147.793L132.145 147.965L130.712 148.138C130.244 148.138 129.762 148.244 129.293 148.336L126.454 148.8C125.503 148.985 124.579 149.211 123.628 149.409L122.222 149.727L120.882 150.112L119.543 150.496L118.847 150.695L118.164 150.92L115.485 151.86C114.588 152.205 113.704 152.576 112.807 152.947C112.365 153.132 111.896 153.291 111.467 153.503L110.128 154.139L108.789 154.762L108.132 155.08L107.503 155.438L104.972 156.882C104.543 157.107 104.155 157.385 103.74 157.65L102.534 158.458L101.329 159.267C100.927 159.545 100.552 159.85 100.164 160.141L97.8603 161.916L97.405 162.274L97.1505 163.069C97.1505 163.268 97.03 163.467 96.9764 163.665L96.7487 164.235C96.6684 164.407 96.5612 164.593 96.4675 164.765C96.3737 164.937 96.2532 165.109 96.1461 165.282L95.7577 165.759L95.3291 166.196L94.8604 166.593L94.3514 166.938L93.8158 167.242L93.2533 167.481L92.664 167.666L92.0613 167.799L91.4587 167.865H90.6685H90.0524H89.7578H89.5971H89.4498H89.5569L88.7533 167.64C88.5792 167.64 88.4453 167.507 88.2712 167.454L87.7355 167.176C87.5614 167.083 87.3873 166.964 87.2132 166.858L86.7311 166.487L86.2891 166.063L85.8873 165.6L85.5257 165.096L85.2311 164.566L84.9766 164.01L84.7891 163.427C84.7891 163.228 84.6954 163.043 84.6552 162.844L84.5748 162.234C84.5748 162.036 84.5748 161.824 84.5748 161.625V161.015C84.5748 160.817 84.5748 160.618 84.6686 160.406L84.8025 159.585L84.5481 159.068L83.2088 156.418C82.9945 155.994 82.7936 155.557 82.5526 155.093L81.816 153.848L81.0794 152.602C80.8383 152.192 80.6106 151.754 80.3294 151.37L78.6821 148.985L78.2669 148.389L77.825 147.833L76.9276 146.693L76.0169 145.567C75.7223 145.183 75.3875 144.839 75.0661 144.481C74.4232 143.765 73.7268 143.05 73.1241 142.348L71.0617 140.334L70.5528 139.83C70.3787 139.658 70.1912 139.512 70.0037 139.353L68.9188 138.4L67.834 137.459C67.4858 137.141 67.0841 136.863 66.7225 136.558C65.9591 135.975 65.2225 135.366 64.4457 134.796L62.102 133.153C61.7136 132.875 61.3118 132.623 60.8967 132.358L59.6913 131.603L58.486 130.834L57.2405 130.119L55.995 129.404C55.5932 129.165 55.178 128.94 54.7495 128.728L52.2048 127.403C50.4906 126.595 48.7897 125.76 47.0219 125.045L45.6826 124.488L44.3434 123.985C43.4595 123.64 42.5755 123.283 41.6648 122.978C40.7541 122.673 39.8836 122.342 38.9863 122.05L36.3078 121.176L33.6293 120.381C32.7186 120.129 31.7945 119.904 30.8838 119.666C29.049 119.215 27.2142 118.791 25.366 118.341L22.5937 117.811L19.8081 117.347C17.9331 117.069 16.0715 116.804 14.2099 116.618C12.3484 116.433 10.46 116.261 8.58504 116.221C10.4332 116.486 12.2814 116.817 14.1162 117.188C15.951 117.559 17.7724 117.956 19.5938 118.394L22.2723 119.083L24.9508 119.811C26.7455 120.315 28.5267 120.858 30.3079 121.428C31.1918 121.732 32.0757 122.011 32.9864 122.329L35.6649 123.256L38.2631 124.25L40.8345 125.31C41.6916 125.654 42.522 126.052 43.3657 126.423L44.705 126.992L45.9371 127.602C47.6112 128.397 49.2317 129.271 50.8522 130.132L53.2495 131.457C53.6512 131.682 54.0396 131.921 54.428 132.173L55.5932 132.901L56.7583 133.63L57.8833 134.398L58.9279 135.14C59.3029 135.392 59.6779 135.657 60.0395 135.935L62.2225 137.578C62.9323 138.135 63.5618 138.731 64.3252 139.314C64.6734 139.605 65.035 139.883 65.3698 140.188L66.3609 141.116L67.3653 142.03L67.8608 142.493L68.3296 142.984L70.2179 144.931C70.834 145.594 71.4099 146.256 71.9992 146.958C72.2938 147.303 72.6018 147.634 72.8697 147.992L73.6866 149.065L74.5036 150.138L74.9187 150.668C75.0527 150.854 75.1598 151.039 75.2937 151.225L76.7803 153.464C77.0482 153.835 77.2491 154.232 77.4767 154.616L78.1464 155.782L78.816 156.948C79.0303 157.332 79.2044 157.743 79.4053 158.154L80.5704 160.565L80.4365 159.24L80.3562 160.313L80.2758 161.333C80.2758 161.678 80.2758 162.022 80.2758 162.367C80.2758 162.711 80.3428 163.056 80.3963 163.4C80.4499 163.745 80.5437 164.076 80.6106 164.407L80.932 165.388C81.066 165.706 81.2133 166.024 81.3606 166.342C81.5079 166.66 81.6954 166.938 81.8695 167.242L82.4588 168.09C82.6865 168.355 82.9008 168.62 83.1418 168.872C83.3829 169.124 83.6374 169.362 83.8918 169.588C84.1463 169.813 84.4275 170.038 84.7088 170.237L85.5927 170.793L86.5302 171.27C86.8784 171.416 87.2668 171.562 87.6016 171.668L88.3917 171.893H88.5123H88.6328H88.7667H89.0212L89.5301 171.986L90.5747 172.065H91.6194C91.9676 172.065 92.3158 171.986 92.664 171.946L93.6818 171.721C94.0166 171.628 94.3515 171.509 94.6729 171.403L95.6372 170.979L96.5478 170.475C96.8291 170.276 97.1237 170.091 97.3916 169.879L98.1952 169.217C98.4362 168.965 98.6773 168.726 98.9183 168.461C99.1594 168.196 99.3603 167.931 99.5612 167.653C99.7621 167.375 99.9496 167.07 100.124 166.779C100.298 166.487 100.445 166.169 100.592 165.851C100.74 165.533 100.847 165.215 100.967 164.897L101.249 163.904L100.539 165.056L102.655 163.387C103.003 163.109 103.351 162.817 103.713 162.552L104.825 161.797L105.936 161.042C106.302 160.775 106.682 160.527 107.074 160.3L109.405 158.975L109.981 158.644L110.583 158.339L111.789 157.717L113.007 157.107C113.409 156.895 113.824 156.736 114.24 156.551C115.07 156.206 115.9 155.822 116.731 155.491L119.289 154.55L119.931 154.312L120.588 154.113L121.927 153.715L123.266 153.318C123.695 153.172 124.137 153.093 124.605 152.973C125.503 152.761 126.373 152.523 127.284 152.324L129.962 151.781C130.404 151.675 130.86 151.609 131.302 151.542L132.641 151.331L133.98 151.119L135.32 150.973L136.659 150.814C137.114 150.814 137.569 150.708 137.998 150.681L140.757 150.469C142.592 150.469 144.44 150.31 146.288 150.324H147.627H148.967C149.891 150.324 150.815 150.324 151.739 150.416C152.663 150.509 153.6 150.496 154.525 150.575L157.297 150.801L160.069 151.079C160.993 151.172 161.917 151.304 162.841 151.41C164.69 151.662 166.524 151.94 168.359 152.258L171.118 152.761L173.864 153.318C175.649 153.706 177.471 154.148 179.328 154.643C181.243 155.08 183.051 155.57 184.819 156.127Z" fill="#003555"/>
<path d="M97.7661 138.703L106.512 149.634L109.391 133.894C105.628 135.431 101.784 137.908 97.7661 138.703Z" fill="#F2F8FC"/>
<path d="M154.36 16.6808V9.27465C154.355 8.96982 154.412 8.66702 154.527 8.38418C154.642 8.10134 154.813 7.8442 155.03 7.62801C155.247 7.41181 155.506 7.24094 155.792 7.12553C156.077 7.01012 156.383 6.9525 156.691 6.95609H164.86C165.164 6.95954 165.464 7.02235 165.743 7.1409C166.022 7.25946 166.274 7.43143 166.486 7.64691C166.698 7.86239 166.864 8.11714 166.976 8.39649C167.088 8.67584 167.142 8.97428 167.137 9.27465V13.5408L154.36 16.6808Z" fill="#F2F8FC"/>
</svg>
